<?xml version="1.0" encoding="UTF-8" ?>
<!DOCTYPE svg PUBLIC "-//W3C//DTD SVG 1.1//EN" "http://www.w3.org/Graphics/SVG/1.1/DTD/svg11.dtd">
<svg width="760pt" height="394pt" viewBox="0 0 760 394" version="1.1" xmlns="http://www.w3.org/2000/svg">
<g id="#010101ff">
<path fill="#010101" opacity="1.00" d=" M 161.77 8.80 C 170.76 7.16 179.89 6.63 188.99 6.00 C 311.33 5.99 433.66 6.00 556.00 6.00 C 588.86 5.62 621.98 13.20 650.84 29.13 C 674.87 42.13 695.91 60.49 712.32 82.31 C 712.41 82.42 712.59 82.65 712.68 82.76 C 716.04 86.14 718.06 90.44 720.58 94.42 C 745.17 132.69 754.89 180.08 747.86 224.97 C 741.69 265.75 721.70 304.36 691.78 332.77 C 688.84 335.70 685.92 338.65 682.69 341.26 C 682.57 341.35 682.34 341.54 682.23 341.63 C 652.08 366.61 614.29 382.57 575.12 385.20 C 562.47 386.68 549.71 385.74 537.00 386.00 C 421.00 386.00 304.99 386.01 188.99 385.99 C 183.64 385.77 178.33 384.91 172.97 385.17 C 168.23 385.51 163.87 383.34 159.25 382.72 C 133.72 378.19 109.26 368.10 87.72 353.70 C 87.60 353.62 87.37 353.47 87.26 353.39 C 76.18 345.95 66.10 337.18 56.81 327.61 C 56.71 327.50 56.50 327.30 56.40 327.19 C 50.13 320.60 44.34 313.57 39.00 306.22 C 37.69 304.34 36.41 302.45 35.09 300.59 C 20.28 278.14 10.21 252.55 6.08 225.96 C 4.64 216.32 3.50 206.59 4.00 196.83 C 4.00 196.42 4.00 195.58 4.00 195.17 C 3.43 178.66 6.18 162.19 10.30 146.24 C 18.08 117.54 32.73 90.72 52.73 68.71 C 59.72 61.70 66.43 54.32 74.31 48.28 C 99.42 27.88 129.85 14.10 161.77 8.80 M 205.90 62.02 C 181.42 67.60 158.79 80.36 140.80 97.80 C 136.29 102.93 131.13 107.53 127.43 113.35 C 104.11 143.19 95.13 183.26 101.82 220.39 C 106.21 245.71 118.14 269.56 135.43 288.51 C 136.24 289.56 137.49 289.99 138.73 290.30 C 139.41 294.30 143.28 296.57 146.46 298.51 C 150.43 303.95 156.54 307.24 161.93 311.08 C 184.26 325.99 211.19 333.74 238.00 333.49 C 274.23 333.60 310.10 318.31 335.33 292.35 C 365.18 262.55 379.59 218.28 373.35 176.60 C 369.72 150.08 357.92 124.82 340.23 104.78 C 325.68 88.62 307.49 75.61 287.13 67.85 C 261.49 57.66 232.74 55.89 205.90 62.02 M 608.45 99.64 C 592.92 100.95 577.78 106.23 564.75 114.75 C 547.70 125.68 534.39 142.24 527.16 161.13 C 520.81 177.14 519.23 194.91 521.96 211.87 C 525.05 231.12 534.30 249.20 547.73 263.29 C 559.00 274.86 573.13 283.69 588.58 288.48 C 606.76 294.10 626.58 294.27 644.85 288.96 C 647.24 288.24 649.88 287.52 651.43 285.38 C 653.79 282.12 652.14 276.95 648.36 275.58 C 628.87 269.05 611.74 255.33 601.68 237.33 C 587.05 212.36 587.14 179.66 601.66 154.66 C 610.90 138.29 625.92 125.32 643.34 118.32 C 646.25 117.07 649.99 116.60 651.65 113.54 C 653.82 110.06 651.78 105.22 647.91 104.10 C 635.30 99.82 621.69 98.18 608.45 99.64 Z" />
<path fill="#010101" opacity="1.00" d=" M 596.88 114.97 C 605.78 112.56 615.08 112.09 624.26 112.54 C 621.81 115.10 618.55 116.62 615.82 118.82 C 601.17 129.90 589.68 145.24 583.41 162.53 C 577.78 177.37 576.43 193.60 578.36 209.28 C 581.97 236.07 597.38 261.14 619.96 276.07 C 621.48 277.08 623.02 278.10 624.25 279.48 C 607.45 280.51 590.17 277.06 575.69 268.30 C 566.78 263.61 559.56 256.47 552.89 249.08 C 542.07 235.77 535.24 219.20 534.11 202.05 C 534.20 198.01 534.10 193.98 534.11 189.94 C 535.15 173.96 541.13 158.45 550.71 145.67 C 562.19 130.77 578.55 119.48 596.88 114.97 Z" />
</g>
<g id="#ffffffff">
<path fill="#ffffff" opacity="1.00" d=" M 205.90 62.02 C 232.74 55.89 261.49 57.66 287.13 67.85 C 307.49 75.61 325.68 88.62 340.23 104.78 C 357.92 124.82 369.72 150.08 373.35 176.60 C 379.59 218.28 365.18 262.55 335.33 292.35 C 310.10 318.31 274.23 333.60 238.00 333.49 C 211.19 333.74 184.26 325.99 161.93 311.08 C 156.54 307.24 150.43 303.95 146.46 298.51 C 143.28 296.57 139.41 294.30 138.73 290.30 C 137.49 289.99 136.24 289.56 135.43 288.51 C 118.14 269.56 106.21 245.71 101.82 220.39 C 95.13 183.26 104.11 143.19 127.43 113.35 C 131.13 107.53 136.29 102.93 140.80 97.80 C 158.79 80.36 181.42 67.60 205.90 62.02 Z" />
<path fill="#ffffff" opacity="1.00" d=" M 712.32 82.31 C 712.41 82.42 712.59 82.65 712.68 82.76 C 712.59 82.65 712.41 82.42 712.32 82.31 Z" />
<path fill="#ffffff" opacity="1.00" d=" M 608.45 99.64 C 621.69 98.18 635.30 99.82 647.91 104.10 C 651.78 105.22 653.82 110.06 651.65 113.54 C 649.99 116.60 646.25 117.07 643.34 118.32 C 625.92 125.32 610.90 138.29 601.66 154.66 C 587.14 179.66 587.05 212.36 601.68 237.33 C 611.74 255.33 628.87 269.05 648.36 275.58 C 652.14 276.95 653.79 282.12 651.43 285.38 C 649.88 287.52 647.24 288.24 644.85 288.96 C 626.58 294.27 606.76 294.10 588.58 288.48 C 573.13 283.69 559.00 274.86 547.73 263.29 C 534.30 249.20 525.05 231.12 521.96 211.87 C 519.23 194.91 520.81 177.14 527.16 161.13 C 534.39 142.24 547.70 125.68 564.75 114.75 C 577.78 106.23 592.92 100.95 608.45 99.64 M 596.88 114.97 C 578.55 119.48 562.19 130.77 550.71 145.67 C 541.13 158.45 535.15 173.96 534.11 189.94 C 534.10 193.98 534.20 198.01 534.11 202.05 C 535.24 219.20 542.07 235.77 552.89 249.08 C 559.56 256.47 566.78 263.61 575.69 268.30 C 590.17 277.06 607.45 280.51 624.25 279.48 C 623.02 278.10 621.48 277.08 619.96 276.07 C 597.38 261.14 581.97 236.07 578.36 209.28 C 576.43 193.60 577.78 177.37 583.41 162.53 C 589.68 145.24 601.17 129.90 615.82 118.82 C 618.55 116.62 621.81 115.10 624.26 112.54 C 615.08 112.09 605.78 112.56 596.88 114.97 Z" />
<path fill="#ffffff" opacity="1.00" d=" M 3.21 195.16 L 4.00 195.17 C 4.00 195.58 4.00 196.42 4.00 196.83 L 3.21 196.83 C 3.21 196.42 3.21 195.58 3.21 195.16 Z" />
<path fill="#ffffff" opacity="1.00" d=" M 35.09 300.59 C 36.41 302.45 37.69 304.34 39.00 306.22 C 36.69 305.70 34.97 302.89 35.09 300.59 Z" />
<path fill="#ffffff" opacity="1.00" d=" M 56.40 327.19 C 56.50 327.30 56.71 327.50 56.81 327.61 C 56.71 327.50 56.50 327.30 56.40 327.19 Z" />
<path fill="#ffffff" opacity="1.00" d=" M 682.23 341.63 C 682.34 341.54 682.57 341.35 682.69 341.26 C 682.57 341.35 682.34 341.54 682.23 341.63 Z" />
<path fill="#ffffff" opacity="1.00" d=" M 87.26 353.39 C 87.37 353.47 87.60 353.62 87.72 353.70 C 87.60 353.62 87.37 353.47 87.26 353.39 Z" />
</g>
</svg>
