<?xml version="1.0" encoding="UTF-8" ?>
<!DOCTYPE svg PUBLIC "-//W3C//DTD SVG 1.1//EN" "http://www.w3.org/Graphics/SVG/1.1/DTD/svg11.dtd">
<svg width="753pt" height="397pt" viewBox="0 0 753 397" version="1.1" xmlns="http://www.w3.org/2000/svg">
<g id="#ecff1eff">
<path fill="#ecff1e" opacity="1.00" d=" M 178.89 7.90 C 183.48 6.54 188.28 7.08 193.00 7.00 C 217.00 7.01 240.99 6.98 264.99 7.00 L 265.11 8.12 C 256.41 8.74 247.70 8.18 239.00 8.27 C 221.98 8.32 204.96 8.17 187.95 8.35 C 180.30 8.35 172.71 9.39 165.09 9.93 L 164.87 9.01 C 169.62 9.44 174.14 7.66 178.89 7.90 Z" />
<path fill="#ecff1e" opacity="1.00" d=" M 269.19 7.23 C 269.35 7.38 269.67 7.68 269.83 7.83 L 269.18 7.84 L 269.19 7.23 Z" />
<path fill="#ecff1e" opacity="1.00" d=" M 275.98 7.01 C 372.30 6.97 468.62 6.98 564.94 6.97 C 566.55 6.93 568.14 7.08 569.72 7.41 L 568.65 7.97 C 563.45 8.55 558.21 8.30 553.00 8.32 C 476.67 8.31 400.33 8.31 324.00 8.32 C 307.99 8.20 291.97 8.58 275.97 8.12 L 275.98 7.01 Z" />
<path fill="#ecff1e" opacity="1.00" d=" M 569.55 8.06 C 575.25 8.25 581.25 7.00 586.65 9.33 C 588.58 10.10 590.83 9.76 592.60 10.99 C 584.89 10.24 577.18 9.44 569.55 8.06 Z" />
<path fill="#ecff1e" opacity="1.00" d=" M 149.13 11.05 C 153.98 11.48 158.54 9.25 163.39 10.13 C 155.80 11.68 148.27 13.56 140.65 14.95 C 143.47 13.66 146.26 12.25 149.13 11.05 Z" />
<path fill="#ecff1e" opacity="1.00" d=" M 593.35 11.38 C 594.09 10.19 597.22 10.43 596.91 12.16 C 595.65 12.39 594.38 12.14 593.35 11.38 Z" />
<path fill="#ecff1e" opacity="1.00" d=" M 597.62 12.15 C 599.66 12.00 601.72 11.96 603.78 11.96 C 604.12 12.45 604.80 13.43 605.14 13.92 C 602.63 13.31 600.13 12.69 597.62 12.15 Z" />
<path fill="#ecff1e" opacity="1.00" d=" M 605.83 14.11 C 607.14 13.99 608.46 13.97 609.78 14.05 C 615.81 16.87 622.73 17.27 628.39 20.93 C 620.69 19.26 613.39 16.26 605.83 14.11 Z" />
<path fill="#ecff1e" opacity="1.00" d=" M 131.13 17.94 C 131.04 15.57 135.25 15.28 136.81 16.38 C 135.02 17.22 133.09 17.71 131.13 17.94 Z" />
<path fill="#ecff1e" opacity="1.00" d=" M 123.24 20.07 L 124.29 19.82 L 124.97 20.43 C 124.46 20.56 123.44 20.81 122.92 20.93 L 123.24 20.07 Z" />
<path fill="#ecff1e" opacity="1.00" d=" M 103.99 28.97 C 109.50 26.79 114.23 22.36 120.33 21.94 C 110.28 26.75 100.32 31.74 90.56 37.10 C 93.97 32.96 99.08 30.80 103.99 28.97 Z" />
<path fill="#ecff1e" opacity="1.00" d=" M 630.05 22.27 L 630.79 21.72 L 631.80 22.07 L 631.99 22.96 C 631.51 22.79 630.54 22.44 630.05 22.27 Z" />
<path fill="#ecff1e" opacity="1.00" d=" M 632.59 23.08 C 635.74 23.19 638.42 25.23 641.07 26.74 C 638.16 25.73 635.33 24.49 632.59 23.08 Z" />
<path fill="#ecff1e" opacity="1.00" d=" M 641.63 27.03 C 643.63 26.98 645.30 28.18 647.05 28.98 C 649.25 30.20 651.91 30.89 653.37 33.12 C 649.25 31.50 645.29 29.51 641.63 27.03 Z" />
<path fill="#ecff1e" opacity="1.00" d=" M 654.76 34.06 C 655.45 34.03 656.82 33.98 657.51 33.96 C 659.71 36.80 662.77 38.57 666.00 40.02 C 668.91 42.17 672.17 44.07 674.29 47.09 C 667.60 43.02 661.01 38.77 654.76 34.06 Z" />
<path fill="#ecff1e" opacity="1.00" d=" M 85.02 41.07 C 84.87 39.30 88.19 37.64 89.72 38.10 C 88.67 39.73 87.09 41.17 85.02 41.07 Z" />
<path fill="#ecff1e" opacity="1.00" d=" M 82.10 42.27 C 82.52 42.19 83.37 42.04 83.80 41.96 C 83.39 42.25 82.56 42.84 82.15 43.14 L 82.10 42.27 Z" />
<path fill="#ecff1e" opacity="1.00" d=" M 75.73 47.69 C 76.23 45.19 78.88 44.55 80.88 43.63 C 79.18 45.01 77.47 46.37 75.73 47.69 Z" />
<path fill="#ecff1e" opacity="1.00" d=" M 67.66 54.05 C 68.84 51.06 71.98 48.18 75.31 48.02 C 72.86 50.16 70.28 52.13 67.66 54.05 Z" />
<path fill="#ecff1e" opacity="1.00" d=" M 675.24 47.96 C 675.78 47.97 676.84 47.99 677.37 48.00 C 678.80 50.22 681.26 51.60 682.42 54.00 C 679.91 52.13 677.44 50.20 675.24 47.96 Z" />
<path fill="#ecff1e" opacity="1.00" d=" M 683.51 55.37 C 684.94 54.38 687.23 56.73 687.09 58.19 C 685.55 57.76 684.26 56.78 683.51 55.37 Z" />
<path fill="#ecff1e" opacity="1.00" d=" M 61.29 57.22 C 62.82 56.80 64.35 56.38 65.83 55.80 C 63.71 58.11 61.42 60.25 59.06 62.31 C 59.91 60.66 60.86 59.05 61.29 57.22 Z" />
<path fill="#ecff1e" opacity="1.00" d=" M 688.52 58.99 C 688.61 59.06 688.77 59.19 688.85 59.26 C 688.77 59.19 688.61 59.06 688.52 58.99 Z" />
<path fill="#ecff1e" opacity="1.00" d=" M 503.60 66.49 C 516.27 61.00 530.34 59.86 544.00 60.04 C 551.42 60.18 559.03 59.30 566.24 61.58 C 574.58 62.51 582.94 63.87 590.71 67.22 C 597.97 68.94 604.23 73.11 611.00 76.08 C 616.45 78.64 621.25 82.31 625.94 86.04 C 630.65 88.92 634.78 92.56 639.05 96.03 C 641.58 98.20 642.88 101.44 645.44 103.59 C 649.96 107.48 653.59 112.29 656.65 117.37 C 659.17 121.47 662.60 124.91 664.90 129.15 C 669.01 136.39 671.89 144.25 674.93 151.99 C 677.29 159.87 679.97 167.76 680.78 176.00 C 680.95 183.69 682.46 191.29 682.00 199.01 C 682.49 208.70 680.55 218.27 678.68 227.72 C 676.35 235.74 674.38 243.95 670.53 251.41 C 667.81 259.09 663.34 265.94 658.55 272.46 C 654.85 279.78 648.80 285.43 643.35 291.43 C 634.77 300.31 624.51 307.28 614.31 314.14 C 609.53 316.29 605.06 319.05 600.36 321.36 C 581.63 329.02 561.33 333.23 541.05 332.23 C 534.73 331.97 528.39 331.94 522.15 330.75 C 513.73 329.70 505.95 326.17 497.80 324.06 C 495.70 323.80 494.52 322.01 493.44 320.41 C 490.28 320.06 487.13 319.35 484.51 317.49 C 476.18 312.25 467.08 307.99 459.84 301.20 C 454.35 296.36 448.16 292.20 443.63 286.38 C 425.54 266.31 413.98 240.58 410.23 213.87 C 409.25 208.24 411.03 202.50 409.52 196.94 C 408.47 184.73 410.93 172.54 414.05 160.79 C 415.50 156.80 417.01 152.80 417.61 148.57 C 418.69 148.28 419.78 148.01 420.88 147.74 C 421.00 143.73 421.10 139.59 422.96 135.93 C 426.77 128.08 431.98 121.02 436.95 113.87 C 439.82 110.14 443.76 107.33 446.25 103.28 C 448.20 99.95 451.83 98.25 454.25 95.35 C 457.22 91.40 461.82 89.16 466.31 87.39 C 467.41 84.83 469.53 82.99 471.97 81.73 C 477.33 78.86 482.20 74.98 488.05 73.09 C 491.09 72.11 493.46 69.82 496.38 68.58 C 498.75 67.75 501.23 67.33 503.60 66.49 Z" />
<path fill="#ecff1e" opacity="1.00" d=" M 54.37 62.94 C 55.66 62.99 56.95 63.04 58.24 63.10 C 56.14 65.25 54.01 67.36 51.87 69.46 C 52.14 67.08 54.07 65.34 54.37 62.94 Z" />
<path fill="#ecff1e" opacity="1.00" d=" M 692.09 62.63 C 694.15 64.07 696.87 65.49 697.34 68.18 C 695.49 66.43 693.70 64.61 692.09 62.63 Z" />
<path fill="#ecff1e" opacity="1.00" d=" M 699.55 70.90 C 700.06 70.95 701.08 71.04 701.60 71.09 C 703.66 73.95 706.26 76.52 707.34 79.97 C 704.53 77.13 701.87 74.15 699.55 70.90 Z" />
<path fill="#ecff1e" opacity="1.00" d=" M 47.94 73.92 C 47.60 72.22 48.25 71.61 49.88 72.09 C 49.63 73.18 48.98 73.78 47.94 73.92 Z" />
<path fill="#ecff1e" opacity="1.00" d=" M 44.09 78.88 C 43.18 77.39 45.57 74.92 47.05 75.03 C 47.08 76.88 45.56 78.06 44.09 78.88 Z" />
<path fill="#ecff1e" opacity="1.00" d=" M 35.93 89.36 C 38.03 85.89 38.78 81.09 43.14 79.74 C 40.93 83.09 38.59 86.35 35.93 89.36 Z" />
<path fill="#ecff1e" opacity="1.00" d=" M 708.78 81.86 C 710.09 82.69 711.38 83.58 712.74 84.36 C 714.00 88.98 718.02 92.29 719.38 96.94 C 715.53 92.14 712.10 87.03 708.78 81.86 Z" />
<path fill="#ecff1e" opacity="1.00" d=" M 192.63 86.59 C 194.22 84.13 198.87 83.99 200.17 86.87 C 202.35 91.59 201.98 96.94 202.00 102.00 C 201.87 113.70 202.14 125.40 201.88 137.09 C 202.06 139.49 200.58 141.66 198.39 142.56 C 195.85 144.20 193.41 141.78 191.17 140.75 C 190.81 125.50 191.17 110.23 190.97 94.97 C 191.14 92.15 190.63 88.90 192.63 86.59 Z" />
<path fill="#ecff1e" opacity="1.00" d=" M 28.00 101.85 C 27.55 100.45 29.04 97.17 30.78 97.92 C 30.39 99.52 29.71 101.29 28.00 101.85 Z" />
<path fill="#ecff1e" opacity="1.00" d=" M 719.94 98.15 C 721.41 97.53 723.01 100.14 721.69 101.14 C 720.66 100.45 720.08 99.35 719.94 98.15 Z" />
<path fill="#ecff1e" opacity="1.00" d=" M 25.34 106.82 C 24.04 105.66 25.36 102.65 27.10 103.07 C 27.12 104.54 26.31 105.80 25.34 106.82 Z" />
<path fill="#ecff1e" opacity="1.00" d=" M 16.44 123.47 C 19.44 118.76 20.66 113.12 23.98 108.58 C 20.89 116.85 16.62 124.62 13.72 132.96 C 8.40 146.62 5.54 161.02 3.13 175.43 C 2.56 167.06 4.72 158.84 6.78 150.78 C 7.65 146.91 9.06 143.19 10.58 139.53 C 11.15 136.94 11.25 134.10 12.92 131.90 C 14.75 129.40 15.22 126.26 16.44 123.47 Z" />
<path fill="#ecff1e" opacity="1.00" d=" M 733.34 123.81 C 734.42 126.81 738.15 128.65 736.83 132.23 C 735.43 129.52 734.13 126.76 733.34 123.81 Z" />
<path fill="#ecff1e" opacity="1.00" d=" M 134.29 133.22 C 137.19 131.42 141.20 131.95 143.32 134.70 C 149.79 141.54 156.64 148.02 163.22 154.75 C 166.07 157.09 164.74 160.91 163.93 163.89 C 161.36 163.95 158.76 164.15 156.21 163.80 C 148.39 157.30 142.07 149.19 134.47 142.44 C 132.16 139.96 131.46 135.63 134.29 133.22 Z" />
<path fill="#ecff1e" opacity="1.00" d=" M 254.24 133.08 C 255.49 133.00 256.76 132.96 258.02 132.95 C 258.72 134.59 259.73 136.19 259.88 138.01 C 259.24 140.87 257.19 143.15 255.20 145.20 C 250.64 149.63 246.03 154.03 241.62 158.62 C 239.77 160.42 238.01 162.45 235.64 163.59 C 233.82 163.98 231.96 164.02 230.11 164.14 C 229.35 161.39 227.16 158.08 229.56 155.53 C 236.35 148.59 242.66 141.18 250.08 134.86 C 251.37 135.13 252.67 135.42 253.97 135.69 C 254.04 135.04 254.17 133.73 254.24 133.08 Z" />
<path fill="#ecff1e" opacity="1.00" d=" M 737.06 132.78 C 740.14 134.76 739.35 139.00 740.99 141.92 C 743.01 145.85 743.01 150.36 744.63 154.43 C 745.10 158.46 746.49 162.43 745.89 166.53 C 743.48 155.14 740.22 143.98 737.06 132.78 Z" />
<path fill="#ecff1e" opacity="1.00" d=" M 190.43 161.56 C 201.20 159.69 212.66 162.84 220.71 170.28 C 225.04 174.55 228.40 179.86 230.23 185.67 C 232.12 192.15 231.54 199.03 230.46 205.59 C 228.09 213.45 223.16 220.73 216.15 225.16 C 207.60 231.28 196.25 232.12 186.27 229.67 C 169.25 225.17 157.69 206.05 162.02 188.90 C 164.28 174.94 176.43 163.36 190.43 161.56 M 191.30 173.21 C 182.52 174.67 176.05 182.49 173.65 190.70 C 171.29 198.35 174.71 206.47 179.73 212.25 C 187.14 220.31 200.43 221.37 209.46 215.48 C 216.63 211.08 219.90 202.11 219.24 193.97 C 219.76 180.04 204.15 170.18 191.30 173.21 Z" />
<path fill="#ecff1e" opacity="1.00" d=" M 745.87 168.11 C 747.79 168.02 747.58 171.70 746.59 172.77 C 745.94 171.30 745.59 169.71 745.87 168.11 Z" />
<path fill="#ecff1e" opacity="1.00" d=" M 747.16 175.44 C 748.03 177.52 749.16 179.66 749.02 181.99 C 748.97 191.98 749.04 201.97 749.01 211.95 C 748.70 212.38 748.07 213.25 747.76 213.68 C 747.65 208.12 748.00 202.56 748.06 197.01 C 747.89 189.81 747.40 182.63 747.16 175.44 Z" />
<path fill="#ecff1e" opacity="1.00" d=" M 2.05 177.96 L 2.91 178.01 C 2.01 188.87 2.66 199.77 2.00 210.62 L 1.41 211.69 C 0.50 204.50 1.25 197.20 0.98 189.96 C 0.53 185.87 2.42 182.05 2.05 177.96 Z" />
<path fill="#ecff1e" opacity="1.00" d=" M 87.19 191.25 C 89.13 189.88 91.70 190.32 93.95 190.16 C 108.12 190.34 122.29 190.13 136.46 190.29 C 136.99 191.56 137.52 192.83 138.04 194.10 C 139.75 193.52 141.14 192.29 142.87 191.75 C 142.90 194.34 142.92 196.93 142.84 199.52 C 138.97 200.53 135.11 201.90 131.05 201.81 C 119.36 201.77 107.66 201.75 95.96 201.81 C 93.06 201.69 90.00 201.89 87.28 200.68 C 84.54 198.32 85.27 193.89 87.19 191.25 Z" />
<path fill="#ecff1e" opacity="1.00" d=" M 251.23 191.21 C 266.12 189.71 281.09 190.65 296.02 190.32 C 299.49 190.45 303.76 189.81 306.35 192.68 C 307.41 195.08 307.26 198.34 304.89 199.92 C 303.00 202.37 299.73 201.73 297.03 201.86 C 282.81 201.77 268.58 202.09 254.37 201.53 C 254.18 200.43 254.00 199.33 253.81 198.23 C 252.16 197.97 250.51 197.70 248.87 197.42 C 249.60 195.33 250.42 193.27 251.23 191.21 Z" />
<path fill="#ecff1e" opacity="1.00" d=" M 2.14 211.47 C 2.42 212.64 2.69 213.82 2.95 215.01 C 3.47 216.91 3.99 219.30 1.92 220.46 C 1.98 217.46 1.94 214.46 2.14 211.47 Z" />
<path fill="#ecff1e" opacity="1.00" d=" M 746.89 218.96 C 746.59 217.37 746.90 215.78 747.55 214.32 C 748.63 215.33 748.75 218.94 746.89 218.96 Z" />
<path fill="#ecff1e" opacity="1.00" d=" M 3.37 220.55 L 3.71 221.91 C 4.50 228.43 5.69 234.88 6.85 241.34 C 4.09 240.75 3.80 237.32 3.99 235.00 C 4.44 230.11 1.84 225.44 3.37 220.55 Z" />
<path fill="#ecff1e" opacity="1.00" d=" M 745.84 228.84 C 745.61 226.90 745.97 224.98 746.63 223.17 C 747.37 224.55 747.97 228.86 745.84 228.84 Z" />
<path fill="#ecff1e" opacity="1.00" d=" M 154.46 229.46 C 156.51 227.17 159.99 227.92 162.70 228.22 C 165.74 230.00 165.72 234.97 163.27 237.28 C 159.06 241.73 154.59 245.94 150.24 250.25 C 148.98 251.43 148.38 253.09 147.76 254.65 C 143.53 256.19 140.43 261.37 135.43 259.65 C 133.15 258.61 132.69 256.20 134.19 254.28 C 133.79 253.29 133.38 252.31 132.99 251.32 C 138.19 247.04 141.92 241.35 146.92 236.86 C 149.50 234.46 151.94 231.92 154.46 229.46 Z" />
<path fill="#ecff1e" opacity="1.00" d=" M 230.32 228.19 C 233.00 227.81 236.27 227.46 238.19 229.83 C 244.41 235.95 250.45 242.26 256.75 248.31 C 259.21 250.51 261.17 254.22 259.68 257.48 C 258.36 259.06 256.11 259.53 254.16 259.76 C 248.92 256.55 244.17 252.49 240.27 247.72 C 236.93 243.70 232.78 240.46 229.32 236.56 C 228.81 233.85 228.29 230.41 230.32 228.19 Z" />
<path fill="#ecff1e" opacity="1.00" d=" M 738.79 256.68 C 741.75 247.81 743.78 238.68 745.85 229.58 C 746.08 231.89 746.20 234.28 745.40 236.51 C 744.17 240.84 746.25 245.72 743.74 249.73 C 742.77 252.43 740.14 254.40 740.97 257.55 C 740.53 257.76 739.64 258.18 739.20 258.39 C 739.20 262.64 737.15 266.48 735.08 270.06 C 733.81 272.53 733.37 275.49 731.22 277.43 C 733.45 270.41 736.65 263.73 738.79 256.68 Z" />
<path fill="#ecff1e" opacity="1.00" d=" M 7.13 242.67 C 9.86 252.65 13.61 262.29 16.85 272.10 C 16.43 271.78 15.58 271.16 15.16 270.85 C 15.19 265.95 11.16 262.34 10.59 257.55 C 7.49 253.31 6.52 247.83 7.13 242.67 Z" />
<path fill="#ecff1e" opacity="1.00" d=" M 191.11 254.02 C 191.03 249.92 196.78 247.11 199.69 250.31 C 202.35 251.97 201.94 255.25 201.99 257.95 C 201.96 271.32 201.99 284.69 202.02 298.05 C 202.22 301.71 200.04 304.80 198.44 307.90 C 196.98 307.63 195.51 307.41 194.11 306.93 C 191.42 303.62 190.83 299.17 190.98 295.03 C 191.18 281.36 190.87 267.68 191.11 254.02 Z" />
<path fill="#ecff1e" opacity="1.00" d=" M 17.09 272.72 C 20.51 279.55 24.34 286.19 27.07 293.34 C 24.35 291.53 24.60 287.82 22.59 285.42 C 20.42 282.90 20.05 279.45 18.15 276.79 C 16.98 275.72 16.99 274.18 17.09 272.72 Z" />
<path fill="#ecff1e" opacity="1.00" d=" M 726.96 285.06 C 727.57 283.21 728.42 281.44 729.72 279.97 C 730.29 281.51 729.26 285.91 726.96 285.06 Z" />
<path fill="#ecff1e" opacity="1.00" d=" M 725.06 288.97 C 725.12 287.68 725.71 286.53 726.66 285.67 C 728.12 286.70 726.95 290.13 725.06 288.97 Z" />
<path fill="#ecff1e" opacity="1.00" d=" M 721.10 296.22 C 722.36 293.98 723.65 291.77 724.91 289.54 C 725.84 292.62 722.82 294.20 721.10 296.22 Z" />
<path fill="#ecff1e" opacity="1.00" d=" M 27.74 294.28 C 29.83 296.73 31.53 299.46 33.02 302.31 C 30.64 300.12 28.96 297.25 27.74 294.28 Z" />
<path fill="#ecff1e" opacity="1.00" d=" M 699.57 325.14 C 706.81 316.33 713.63 307.20 720.08 297.80 C 719.61 299.72 719.14 301.64 718.67 303.56 C 715.49 309.55 708.82 312.86 706.51 319.44 C 704.89 320.50 703.66 321.83 703.81 323.91 C 702.40 324.34 701.00 324.81 699.57 325.14 Z" />
<path fill="#ecff1e" opacity="1.00" d=" M 35.99 306.18 C 36.26 306.61 36.79 307.49 37.06 307.92 L 36.16 307.91 L 35.61 307.00 L 35.99 306.18 Z" />
<path fill="#ecff1e" opacity="1.00" d=" M 37.11 308.50 C 40.12 311.88 43.04 315.36 45.38 319.25 C 43.37 318.49 42.68 316.33 41.54 314.71 C 40.01 315.18 38.51 315.70 37.01 316.24 C 36.98 313.66 36.96 311.08 37.11 308.50 Z" />
<path fill="#ecff1e" opacity="1.00" d=" M 47.12 321.24 C 48.40 322.17 49.52 323.32 50.37 324.66 C 48.60 326.28 46.41 322.82 47.12 321.24 Z" />
<path fill="#ecff1e" opacity="1.00" d=" M 51.88 326.48 C 54.00 328.64 56.10 330.81 58.10 333.09 C 57.37 333.06 55.92 333.02 55.19 332.99 C 54.07 330.83 52.00 329.04 51.88 326.48 Z" />
<path fill="#ecff1e" opacity="1.00" d=" M 693.06 332.38 C 694.63 330.37 696.36 328.49 698.16 326.69 C 698.18 329.55 695.05 330.88 693.06 332.38 Z" />
<path fill="#ecff1e" opacity="1.00" d=" M 687.75 336.72 C 688.22 335.83 688.97 335.32 690.00 335.19 C 690.14 336.97 689.39 337.48 687.75 336.72 Z" />
<path fill="#ecff1e" opacity="1.00" d=" M 68.81 342.98 C 73.05 345.49 76.87 348.62 80.40 352.04 C 76.71 352.69 76.40 347.33 72.87 347.17 C 70.55 346.98 69.81 344.70 68.81 342.98 Z" />
<path fill="#ecff1e" opacity="1.00" d=" M 675.23 347.97 C 675.88 346.45 677.30 345.51 678.72 344.79 C 680.11 346.59 676.75 348.41 675.23 347.97 Z" />
<path fill="#ecff1e" opacity="1.00" d=" M 671.24 350.75 C 671.68 349.67 672.59 348.53 673.92 348.78 C 674.52 350.09 672.29 351.84 671.24 350.75 Z" />
<path fill="#ecff1e" opacity="1.00" d=" M 659.00 359.35 C 662.27 356.08 666.18 353.51 670.52 351.89 C 667.11 354.97 663.40 357.84 659.00 359.35 Z" />
<path fill="#ecff1e" opacity="1.00" d=" M 81.72 353.07 C 89.46 357.33 96.59 362.64 104.59 366.45 C 111.89 370.50 119.89 373.04 127.23 376.98 C 118.71 374.29 110.14 371.18 102.47 366.46 C 97.08 364.71 92.73 361.01 88.01 358.03 C 85.79 356.53 83.34 355.26 81.72 353.07 Z" />
<path fill="#ecff1e" opacity="1.00" d=" M 654.86 361.64 C 655.55 360.62 656.65 360.05 657.86 359.93 C 658.46 361.41 655.83 362.99 654.86 361.64 Z" />
<path fill="#ecff1e" opacity="1.00" d=" M 629.58 373.85 C 637.80 370.78 645.34 366.21 653.47 362.95 C 646.60 369.11 637.46 371.81 629.00 375.03 C 622.95 377.55 616.79 379.89 610.42 381.44 C 604.65 383.35 598.73 385.34 592.58 385.06 C 605.09 381.94 617.65 378.83 629.58 373.85 Z" />
<path fill="#ecff1e" opacity="1.00" d=" M 127.86 377.22 C 131.00 377.87 134.08 378.81 137.09 379.93 C 133.71 380.57 130.84 378.39 127.86 377.22 Z" />
<path fill="#ecff1e" opacity="1.00" d=" M 137.71 380.13 C 145.91 382.25 154.24 383.78 162.44 385.88 C 157.94 386.62 153.71 384.52 149.20 384.90 C 145.42 383.25 140.68 383.15 137.71 380.13 Z" />
<path fill="#ecff1e" opacity="1.00" d=" M 568.60 387.94 C 576.28 386.86 583.97 385.81 591.71 385.24 L 592.68 385.17 C 584.97 387.79 576.71 388.52 568.60 387.94 Z" />
<path fill="#ecff1e" opacity="1.00" d=" M 164.10 386.06 C 172.31 386.58 180.49 387.38 188.69 388.00 L 189.75 388.60 C 184.11 390.17 178.66 387.58 173.02 387.98 C 169.96 387.71 167.01 386.63 163.88 386.96 L 164.10 386.06 Z" />
</g>
<g id="#fb4302ff">
<path fill="#fb4302" opacity="1.00" d=" M 165.09 9.93 C 172.71 9.39 180.30 8.35 187.95 8.35 C 204.96 8.17 221.98 8.32 239.00 8.27 C 247.70 8.18 256.41 8.74 265.11 8.12 C 266.46 8.01 267.82 7.91 269.18 7.84 L 269.83 7.83 C 271.88 7.89 273.92 8.01 275.97 8.12 C 291.97 8.58 307.99 8.20 324.00 8.32 C 400.33 8.31 476.67 8.31 553.00 8.32 C 558.21 8.30 563.45 8.55 568.65 7.97 L 569.55 8.06 C 577.18 9.44 584.89 10.24 592.60 10.99 L 593.35 11.38 C 594.38 12.14 595.65 12.39 596.91 12.16 L 597.62 12.15 C 600.13 12.69 602.63 13.31 605.14 13.92 L 605.83 14.11 C 613.39 16.26 620.69 19.26 628.39 20.93 C 628.80 21.27 629.64 21.93 630.05 22.27 C 630.54 22.44 631.51 22.79 631.99 22.96 L 632.59 23.08 C 635.33 24.49 638.16 25.73 641.07 26.74 L 641.63 27.03 C 645.29 29.51 649.25 31.50 653.37 33.12 C 653.71 33.35 654.41 33.82 654.76 34.06 C 661.01 38.77 667.60 43.02 674.29 47.09 C 674.53 47.31 675.01 47.74 675.24 47.96 C 677.44 50.20 679.91 52.13 682.42 54.00 C 682.70 54.34 683.24 55.03 683.51 55.37 C 684.26 56.78 685.55 57.76 687.09 58.19 C 687.45 58.39 688.16 58.79 688.52 58.99 C 688.61 59.06 688.77 59.19 688.85 59.26 C 690.00 60.31 691.06 61.46 692.09 62.63 C 693.70 64.61 695.49 66.43 697.34 68.18 C 698.15 69.02 698.83 69.97 699.55 70.90 C 701.87 74.15 704.53 77.13 707.34 79.97 C 707.86 80.56 708.34 81.19 708.78 81.86 C 712.10 87.03 715.53 92.14 719.38 96.94 C 719.52 97.25 719.80 97.85 719.94 98.15 C 720.08 99.35 720.66 100.45 721.69 101.14 C 724.42 103.41 725.37 106.98 727.08 109.97 C 729.56 114.38 731.93 118.92 733.34 123.81 C 734.13 126.76 735.43 129.52 736.83 132.23 L 737.06 132.78 C 740.22 143.98 743.48 155.14 745.89 166.53 C 745.88 166.93 745.87 167.72 745.87 168.11 C 745.59 169.71 745.94 171.30 746.59 172.77 C 746.74 173.43 747.02 174.77 747.16 175.44 C 747.40 182.63 747.89 189.81 748.06 197.01 C 748.00 202.56 747.65 208.12 747.76 213.68 L 747.55 214.32 C 746.90 215.78 746.59 217.37 746.89 218.96 C 747.07 220.39 746.98 221.79 746.63 223.17 C 745.97 224.98 745.61 226.90 745.84 228.84 L 745.85 229.58 C 743.78 238.68 741.75 247.81 738.79 256.68 C 736.65 263.73 733.45 270.41 731.22 277.43 C 730.87 278.37 730.38 279.21 729.72 279.97 C 728.42 281.44 727.57 283.21 726.96 285.06 L 726.66 285.67 C 725.71 286.53 725.12 287.68 725.06 288.97 L 724.91 289.54 C 723.65 291.77 722.36 293.98 721.10 296.22 C 720.85 296.61 720.33 297.41 720.08 297.80 C 713.63 307.20 706.81 316.33 699.57 325.14 C 699.11 325.67 698.64 326.18 698.16 326.69 C 696.36 328.49 694.63 330.37 693.06 332.38 C 692.12 333.39 691.29 334.63 690.00 335.19 C 688.97 335.32 688.22 335.83 687.75 336.72 C 685.72 340.36 682.17 342.66 678.72 344.79 C 677.30 345.51 675.88 346.45 675.23 347.97 L 674.79 348.76 L 673.92 348.78 C 672.59 348.53 671.68 349.67 671.24 350.75 C 671.06 351.04 670.70 351.60 670.52 351.89 C 666.18 353.51 662.27 356.08 659.00 359.35 C 658.71 359.50 658.15 359.79 657.86 359.93 C 656.65 360.05 655.55 360.62 654.86 361.64 C 654.52 361.97 653.82 362.62 653.47 362.95 C 645.34 366.21 637.80 370.78 629.58 373.85 C 617.65 378.83 605.09 381.94 592.58 385.06 L 591.71 385.24 C 583.97 385.81 576.28 386.86 568.60 387.94 C 518.42 388.43 468.20 388.12 418.00 388.19 C 341.56 388.16 265.13 387.85 188.69 388.00 C 180.49 387.38 172.31 386.58 164.10 386.06 C 163.68 386.01 162.85 385.92 162.44 385.88 C 154.24 383.78 145.91 382.25 137.71 380.13 L 137.09 379.93 C 134.08 378.81 131.00 377.87 127.86 377.22 L 127.23 376.98 C 119.89 373.04 111.89 370.50 104.59 366.45 C 96.59 362.64 89.46 357.33 81.72 353.07 C 81.39 352.81 80.73 352.30 80.40 352.04 C 76.87 348.62 73.05 345.49 68.81 342.98 C 64.62 340.41 61.56 336.49 58.10 333.09 C 56.10 330.81 54.00 328.64 51.88 326.48 C 51.34 325.91 50.83 325.30 50.37 324.66 C 49.52 323.32 48.40 322.17 47.12 321.24 C 46.41 320.69 45.83 320.03 45.38 319.25 C 43.04 315.36 40.12 311.88 37.11 308.50 L 37.06 307.92 C 36.79 307.49 36.26 306.61 35.99 306.18 C 34.66 305.21 33.93 303.64 33.02 302.31 C 31.53 299.46 29.83 296.73 27.74 294.28 C 27.57 294.04 27.24 293.58 27.07 293.34 C 24.34 286.19 20.51 279.55 17.09 272.72 L 16.85 272.10 C 13.61 262.29 9.86 252.65 7.13 242.67 C 7.06 242.34 6.92 241.68 6.85 241.34 C 5.69 234.88 4.50 228.43 3.71 221.91 C 3.62 219.59 3.54 217.26 2.95 215.01 C 2.69 213.82 2.42 212.64 2.14 211.47 L 2.00 210.62 C 2.66 199.77 2.01 188.87 2.91 178.01 C 2.96 177.37 3.07 176.08 3.13 175.43 C 5.54 161.02 8.40 146.62 13.72 132.96 C 16.62 124.62 20.89 116.85 23.98 108.58 C 24.32 108.14 25.00 107.26 25.34 106.82 C 26.31 105.80 27.12 104.54 27.10 103.07 L 27.19 102.25 L 28.00 101.85 C 29.71 101.29 30.39 99.52 30.78 97.92 C 31.85 94.74 34.04 92.09 35.93 89.36 C 38.59 86.35 40.93 83.09 43.14 79.74 C 43.38 79.53 43.86 79.09 44.09 78.88 C 45.56 78.06 47.08 76.88 47.05 75.03 L 47.18 74.05 L 47.94 73.92 C 48.98 73.78 49.63 73.18 49.88 72.09 C 50.33 71.07 51.12 70.26 51.87 69.46 C 54.01 67.36 56.14 65.25 58.24 63.10 C 58.44 62.91 58.86 62.51 59.06 62.31 C 61.42 60.25 63.71 58.11 65.83 55.80 C 66.39 55.16 67.00 54.58 67.66 54.05 C 70.28 52.13 72.86 50.16 75.31 48.02 L 75.73 47.69 C 77.47 46.37 79.18 45.01 80.88 43.63 C 81.20 43.51 81.83 43.26 82.15 43.14 C 82.56 42.84 83.39 42.25 83.80 41.96 L 84.04 41.16 L 85.02 41.07 C 87.09 41.17 88.67 39.73 89.72 38.10 C 89.93 37.85 90.35 37.35 90.56 37.10 C 100.32 31.74 110.28 26.75 120.33 21.94 C 121.17 21.54 122.03 21.20 122.92 20.93 C 123.44 20.81 124.46 20.56 124.97 20.43 C 126.90 19.36 128.90 18.19 131.13 17.94 C 133.09 17.71 135.02 17.22 136.81 16.38 C 138.08 15.87 139.35 15.38 140.65 14.95 C 148.27 13.56 155.80 11.68 163.39 10.13 C 163.82 10.08 164.67 9.98 165.09 9.93 M 503.60 66.49 C 501.23 67.33 498.75 67.75 496.38 68.58 C 493.46 69.82 491.09 72.11 488.05 73.09 C 482.20 74.98 477.33 78.86 471.97 81.73 C 469.53 82.99 467.41 84.83 466.31 87.39 C 461.82 89.16 457.22 91.40 454.25 95.35 C 451.83 98.25 448.20 99.95 446.25 103.28 C 443.76 107.33 439.82 110.14 436.95 113.87 C 431.98 121.02 426.77 128.08 422.96 135.93 C 421.10 139.59 421.00 143.73 420.88 147.74 C 419.78 148.01 418.69 148.28 417.61 148.57 C 417.01 152.80 415.50 156.80 414.05 160.79 C 410.93 172.54 408.47 184.73 409.52 196.94 C 411.03 202.50 409.25 208.24 410.23 213.87 C 413.98 240.58 425.54 266.31 443.63 286.38 C 448.16 292.20 454.35 296.36 459.84 301.20 C 467.08 307.99 476.18 312.25 484.51 317.49 C 487.13 319.35 490.28 320.06 493.44 320.41 C 494.52 322.01 495.70 323.80 497.80 324.06 C 505.95 326.17 513.73 329.70 522.15 330.75 C 528.39 331.94 534.73 331.97 541.05 332.23 C 561.33 333.23 581.63 329.02 600.36 321.36 C 605.06 319.05 609.53 316.29 614.31 314.14 C 624.51 307.28 634.77 300.31 643.35 291.43 C 648.80 285.43 654.85 279.78 658.55 272.46 C 663.34 265.94 667.81 259.09 670.53 251.41 C 674.38 243.95 676.35 235.74 678.68 227.72 C 680.55 218.27 682.49 208.70 682.00 199.01 C 682.46 191.29 680.95 183.69 680.78 176.00 C 679.97 167.76 677.29 159.87 674.93 151.99 C 671.89 144.25 669.01 136.39 664.90 129.15 C 662.60 124.91 659.17 121.47 656.65 117.37 C 653.59 112.29 649.96 107.48 645.44 103.59 C 642.88 101.44 641.58 98.20 639.05 96.03 C 634.78 92.56 630.65 88.92 625.94 86.04 C 621.25 82.31 616.45 78.64 611.00 76.08 C 604.23 73.11 597.97 68.94 590.71 67.22 C 582.94 63.87 574.58 62.51 566.24 61.58 C 559.03 59.30 551.42 60.18 544.00 60.04 C 530.34 59.86 516.27 61.00 503.60 66.49 M 192.63 86.59 C 190.63 88.90 191.14 92.15 190.97 94.97 C 191.17 110.23 190.81 125.50 191.17 140.75 C 193.41 141.78 195.85 144.20 198.39 142.56 C 200.58 141.66 202.06 139.49 201.88 137.09 C 202.14 125.40 201.87 113.70 202.00 102.00 C 201.98 96.94 202.35 91.59 200.17 86.87 C 198.87 83.99 194.22 84.13 192.63 86.59 M 134.29 133.22 C 131.46 135.63 132.16 139.96 134.47 142.44 C 142.07 149.19 148.39 157.30 156.21 163.80 C 158.76 164.15 161.36 163.95 163.93 163.89 C 164.74 160.91 166.07 157.09 163.22 154.75 C 156.64 148.02 149.79 141.54 143.32 134.70 C 141.20 131.95 137.19 131.42 134.29 133.22 M 254.24 133.08 C 254.17 133.73 254.04 135.04 253.97 135.69 C 252.67 135.42 251.37 135.13 250.08 134.86 C 242.66 141.18 236.35 148.59 229.56 155.53 C 227.16 158.08 229.35 161.39 230.11 164.14 C 231.96 164.02 233.82 163.98 235.64 163.59 C 238.01 162.45 239.77 160.42 241.62 158.62 C 246.03 154.03 250.64 149.63 255.20 145.20 C 257.19 143.15 259.24 140.87 259.88 138.01 C 259.73 136.19 258.72 134.59 258.02 132.95 C 256.76 132.96 255.49 133.00 254.24 133.08 M 190.43 161.56 C 176.43 163.36 164.28 174.94 162.02 188.90 C 157.69 206.05 169.25 225.17 186.27 229.67 C 196.25 232.12 207.60 231.28 216.15 225.16 C 223.16 220.73 228.09 213.45 230.46 205.59 C 231.54 199.03 232.12 192.15 230.23 185.67 C 228.40 179.86 225.04 174.55 220.71 170.28 C 212.66 162.84 201.20 159.69 190.43 161.56 M 87.19 191.25 C 85.27 193.89 84.54 198.32 87.28 200.68 C 90.00 201.89 93.06 201.69 95.96 201.81 C 107.66 201.75 119.36 201.77 131.05 201.81 C 135.11 201.90 138.97 200.53 142.84 199.52 C 142.92 196.93 142.90 194.34 142.87 191.75 C 141.14 192.29 139.75 193.52 138.04 194.10 C 137.52 192.83 136.99 191.56 136.46 190.29 C 122.29 190.13 108.12 190.34 93.95 190.16 C 91.70 190.32 89.13 189.88 87.19 191.25 M 251.23 191.21 C 250.42 193.27 249.60 195.33 248.87 197.42 C 250.51 197.70 252.16 197.97 253.81 198.23 C 254.00 199.33 254.18 200.43 254.37 201.53 C 268.58 202.09 282.81 201.77 297.03 201.86 C 299.73 201.73 303.00 202.37 304.89 199.92 C 307.26 198.34 307.41 195.08 306.35 192.68 C 303.76 189.81 299.49 190.45 296.02 190.32 C 281.09 190.65 266.12 189.71 251.23 191.21 M 154.46 229.46 C 151.94 231.92 149.50 234.46 146.92 236.86 C 141.92 241.35 138.19 247.04 132.99 251.32 C 133.38 252.31 133.79 253.29 134.19 254.28 C 132.69 256.20 133.15 258.61 135.43 259.65 C 140.43 261.37 143.53 256.19 147.76 254.65 C 148.38 253.09 148.98 251.43 150.24 250.25 C 154.59 245.94 159.06 241.73 163.27 237.28 C 165.72 234.97 165.74 230.00 162.70 228.22 C 159.99 227.92 156.51 227.17 154.46 229.46 M 230.32 228.19 C 228.29 230.41 228.81 233.85 229.32 236.56 C 232.78 240.46 236.93 243.70 240.27 247.72 C 244.17 252.49 248.92 256.55 254.16 259.76 C 256.11 259.53 258.36 259.06 259.68 257.48 C 261.17 254.22 259.21 250.51 256.75 248.31 C 250.45 242.26 244.41 235.95 238.19 229.83 C 236.27 227.46 233.00 227.81 230.32 228.19 M 191.11 254.02 C 190.87 267.68 191.18 281.36 190.98 295.03 C 190.83 299.17 191.42 303.62 194.11 306.93 C 195.51 307.41 196.98 307.63 198.44 307.90 C 200.04 304.80 202.22 301.71 202.02 298.05 C 201.99 284.69 201.96 271.32 201.99 257.95 C 201.94 255.25 202.35 251.97 199.69 250.31 C 196.78 247.11 191.03 249.92 191.11 254.02 Z" />
<path fill="#fb4302" opacity="1.00" d=" M 191.30 173.21 C 204.15 170.18 219.76 180.04 219.24 193.97 C 219.90 202.11 216.63 211.08 209.46 215.48 C 200.43 221.37 187.14 220.31 179.73 212.25 C 174.71 206.47 171.29 198.35 173.65 190.70 C 176.05 182.49 182.52 174.67 191.30 173.21 Z" />
</g>
</svg>
