<svg id="Livello_1" data-name="Livello 1" xmlns="http://www.w3.org/2000/svg" viewBox="0 0 841.89 595.28"><defs><style>.cls-1{fill:#140f0c;}.cls-2{fill:#e3be07;}.cls-3{fill:#e6bf08;}.cls-4{fill:#e8c006;}.cls-5{fill:#e52528;}.cls-6{fill:#e7bf04;}.cls-7{fill:#b43133;}.cls-8{fill:#e2e1e1;}.cls-9{fill:#e0e1e0;}.cls-10{fill:#2a2520;}.cls-11{fill:#494641;}.cls-12{fill:#e8c007;}.cls-13{fill:#e3e4e4;}.cls-14{fill:#e4e4e3;}.cls-15{fill:#e3e3e2;}.cls-16{fill:#b6c0c0;}.cls-17{fill:#191611;}</style></defs><path class="cls-1" d="M426.21,30.36h8.13v7.56h8.81v8.21h-8.66c0,3.48,0,7,0,10.46a12.48,12.48,0,0,1,6.13,5.84A11.48,11.48,0,0,1,440,73.17a15.41,15.41,0,0,1-3.9,4,45,45,0,0,1,21.36,10,47.42,47.42,0,0,1,10.7,13.63c1.34,2.5,1.35,5.63,3.3,7.81A469.43,469.43,0,0,0,509,145.24a410.13,410.13,0,0,0,43.19,33.49,193.31,193.31,0,0,0,26.25,15c1.76.93,3.46-.81,5.28-.4a6.68,6.68,0,0,1,5.5,6.23c0,1.58-1.86,2.35-1.73,4-.33,7.69-.48,15.4-.86,23.09A27.17,27.17,0,0,1,586,233c-1.13,4.43-4,8.11-7.25,11.24a32.48,32.48,0,0,1-19.53,9.1,14.89,14.89,0,0,1-10.84-3.08,8.89,8.89,0,0,1-2.81-4.82l-.91,0c-.73,4.42-3.76,8-7,10.84A33.9,33.9,0,0,1,519,264.08a22.59,22.59,0,0,1-12.61-2.3,13.59,13.59,0,0,1-6-7.43,17.24,17.24,0,0,1-5.9,9A31.58,31.58,0,0,1,472.84,270c-4.82-.46-9.84-1.49-13.76-4.51a13.19,13.19,0,0,1-5.42-9.23c-.1-2.43.11-4.88-.21-7.31-.66,3-.05,6.08-.64,9.06a15.12,15.12,0,0,1-4.75,7.65,28,28,0,0,1-8.37,4.63q0,34.37,0,68.72c8.17-4.17,16.19-8.61,24-13.43,16.07-8.89,32-18,48-26.95-.9-1.87-1.68-4-1.13-6.07a6.92,6.92,0,0,1,8.11-5.13c2.3.6,3.95,2.46,5.29,4.32q32.09-18,64.19-36c-.83-1.77-1.65-3.72-1.25-5.71a7,7,0,0,1,7.86-5.58c2.45.5,4.21,2.47,5.69,4.34,2.09-1.08,4.12-2.3,6.18-3.45-.93-1.82-1.71-3.89-1.18-5.95a7,7,0,0,1,7.89-5.29c2.4.54,4.11,2.47,5.55,4.33,2.39-1.23,4.64-2.89,7.32-3.42a9.12,9.12,0,0,1,8.72,3.24c2.86,3.49,2.67,9.21-.73,12.29-1.88,1.67-4.23,2.66-6.35,4a9.59,9.59,0,0,1,1.3,5.32,7,7,0,0,1-7.83,5.95c-2.48-.47-4.29-2.42-5.73-4.37-2.08,1.14-4.15,2.3-6.23,3.43.87,1.73,1.67,3.66,1.3,5.64a7,7,0,0,1-7.89,5.66c-2.44-.52-4.21-2.46-5.68-4.35-.81.44-1.62.88-2.43,1.34a34.6,34.6,0,0,0,14.45,6.35,31.74,31.74,0,0,0,17.1-1.87c.78-.27,1.94-.91,2.41.17,5.11,9,10.1,18,15.17,27,2.42,4.38,5,8.69,7.27,13.13-3.31,2.29-7,4.05-10.44,6.1-2.32,1.24-4.53,2.68-6.91,3.79-.67.46-1.12-.42-1.43-.85-2.29-4-4.53-8-6.81-12.05L618,319.05c2.41,4.37,4.84,8.72,7.25,13.07a81.56,81.56,0,0,1-13.17,7.65q-7-12.11-13.69-24.35l11.85-6.7c-1.12-2-2.26-4-3.38-6L595,309.31q-2-3.46-4-6.93l-9.13,5.05c1.27,2.46,2.56,4.91,3.83,7.37q-5.86,3.24-11.74,6.48c1.11,2,2.23,4,3.34,6,4-2.19,8-4.39,12-6.59l13.62,24.21c-1.56,1.45-3.56,2.26-5.36,3.36-2.56,1.39-5,3-7.7,4.17a15.21,15.21,0,0,1-2.22-3.42q-2.71-4.83-5.41-9.66l-7.55,4.2q3.71,6.67,7.41,13.36l-18,10.11a29.89,29.89,0,0,1-3-4.79q-9.66-17.18-19.31-34.33c-.29-.68-1.09-1.54-.41-2.23,2.13-2.4,4.38-4.72,6.73-6.9,3.91-3.82,5.7-9.24,6.61-14.5a32.49,32.49,0,0,0,.32-8.75c-7.41,4-14.7,8.22-22.06,12.31a9.36,9.36,0,0,1,1.28,5.64,7,7,0,0,1-7.38,5.71c-2.63-.38-4.56-2.43-6.21-4.34l-71.45,39.8c6.61,3.85,13.34,7.49,20,11.27A32.76,32.76,0,0,1,474.8,353a44.42,44.42,0,0,0,13.13,14.89,30.83,30.83,0,0,0,12.86,5,47.67,47.67,0,0,1,18.33,6.43,24.78,24.78,0,0,1,9.3,9.86,28.48,28.48,0,0,1,2.22,7c1.48-3.13,3-6.34,5.55-8.77,4.31-4.38,10.53-6,16.41-7,8-1.32,16,.1,24,1,5.45.57,10.9,1.44,16.4,1.15a80.14,80.14,0,0,0,15.22-2.33,19.56,19.56,0,0,1-5.37,11.8,22,22,0,0,1-5.32,3.85,52.32,52.32,0,0,1,21.23,44.62c2.26-1.65,5.16-2.87,8-2a8.21,8.21,0,0,1,6,9.27c-.63,3-3.12,5.11-5.7,6.51,1.9,2.12,3.47,4.82,3.22,7.77a9.93,9.93,0,0,1-4.19,7.35c-2.39,1.51-5.34,1.48-8,1.28-.2,3.25-.85,7-3.77,9-3.28,2-8.28,1.53-10.53-1.79-1.46-2.06-1.79-4.65-1.95-7.1-7.55,4.77-16.14,8.14-25.1,8.82a52.1,52.1,0,0,1-24.11-4.08c-.28.58-.58,1.16-.87,1.75-.22-.7-.46-1.38-.68-2.06a29.73,29.73,0,0,0-3.3-9.08c4.73-.61,9.47-2.12,13.15-5.24a22.67,22.67,0,0,0,7.63-12.69,32.38,32.38,0,0,1-17.13,4.52c-2.16-.27-4,1.25-6.21.9-2-.2-3.94-.15-5.9-.37-1.37-.13-2.19-1.35-2.79-2.45-2.18-4-4.67-7.81-6.76-11.85-1.58-3.29-2.47-7.14-1.4-10.71,1.86,1.45,3.68,3.31,6.14,3.63a5.26,5.26,0,0,0,4.82-1.91,10.24,10.24,0,0,0,1.08-11c-2.48-4.5-8.47-6.38-13.21-4.66-5.23,1.86-9.13,6.42-11.2,11.46a15.84,15.84,0,0,0-.85,10.44c.41,2.3,1.45,4.71.76,7h-.37c-.9-2.86-2.2-5.64-2.38-8.69-.66-5.79,1.68-11.49,5.24-16a31.7,31.7,0,0,1-8.2,1.82c-5.26.29-10.38-1.58-14.85-4.22a42.28,42.28,0,0,1-11.68-10,33,33,0,0,0-14.13-10.21c-5.48-2.1-11.4-2.57-17.22-2.56a30.84,30.84,0,0,1,8-11.41c-7-3.75-13.6-8.08-20.51-11.93q0,55.32,0,110.64c2,.16,4.25.65,5.43,2.45,1.41,2,.58,4.57.33,6.8-.9,6.43-2.83,12.68-3.41,19.16.07,1.82.33,3.77-.58,5.46-.48,1.2-1.92,1.94-1.87,3.35-.32,15.15,1.14,30.8-3.89,45.39-.85,1.9-2,4-4.09,4.71a4.42,4.42,0,0,1-4.88-1.76c-2-2.53-2.88-5.69-3.67-8.75-1.38-5.54-1.25-11.29-1.43-17-.18-7.4-.19-14.82-.38-22.23.12-2-2.17-2.89-2.46-4.76-.65-2.59.72-5.59-1.24-7.8a83.4,83.4,0,0,1-1-8.62c-.16-3.63-1.53-7.06-1.75-10.68a5.24,5.24,0,0,1,2.36-4.68,9.29,9.29,0,0,1,4.08-1.12q0-55.4,0-110.78a65.66,65.66,0,0,0-7.17,3.7c-1.77.86-2.79,2.69-4.54,3.56-2.83,1.61-5.65,3.25-8.49,4.86a31.1,31.1,0,0,1,8,11.27c-4.6.26-9.26.39-13.74,1.6A31.65,31.65,0,0,0,378.68,405c-5.11,6.21-11.6,11.54-19.27,14.17-5.34,1.89-11.29,1.18-16.45-.88l-.34.7,1,.29c2.63,3.81,4.81,8.23,4.68,13a37.19,37.19,0,0,1-2.05,10.43c-.46,1.61-2.22,2.21-3,3.58-1.3,2.1-2.64,4.17-3.87,6.31-1.64,2.75-2.25,6-4.26,8.55-3.77,5-7.87,9.78-11.16,15.12a33.91,33.91,0,0,0-4.09,8.38c-.24,1.07-1.11,1.81-1.53,2.8-.76,1.79-1.09,3.73-1.84,5.53A17.71,17.71,0,0,1,309,481.9a31.46,31.46,0,0,1-.28-6.21,81,81,0,0,0-9.76,2.9,50.08,50.08,0,0,1-26.26-1.45,66.69,66.69,0,0,1-13.14-6.3c-.12,2.41-.46,4.94-1.91,7-2.88,4.19-10,4-12.76-.27a10.35,10.35,0,0,1-1.41-6.93c-2.77.51-5.83.47-8.24-1.16a10.27,10.27,0,0,1-4.25-7.89c-.09-2.79,1.43-5.3,3.28-7.27a11.35,11.35,0,0,1-5.29-5.2c-1.94-4.38,1.35-10.21,6.16-10.65a12.66,12.66,0,0,1,7.4,2,54.06,54.06,0,0,1,5.29-25.65,55.19,55.19,0,0,1,15.86-18.92,19.1,19.1,0,0,1-9.37-10.23,24.27,24.27,0,0,1-1.28-5.4,76.33,76.33,0,0,0,18.49,2.31c6.83,0,13.57-1.21,20.36-1.85,4.69-.43,9.41-1.13,14.13-.65A46.66,46.66,0,0,1,318.21,383a20,20,0,0,1,9.69,8c1.08,1.59,1.7,3.43,2.8,5a22.67,22.67,0,0,1,5-11.17c4.7-5.48,11.48-8.72,18.35-10.53,4.57-1.33,9.46-1.44,13.85-3.42,8.13-3.44,14.22-10.34,18.54-17.87a31.52,31.52,0,0,1,5.38,12.1c6.53-3.54,13.07-7.05,19.58-10.61a4.91,4.91,0,0,0-1.25-1L340.56,314.8a12.72,12.72,0,0,1-4.81,4c-3,1.2-6.58-.58-8-3.33-1.24-2.45-.48-5.31.6-7.67l-22.07-12.38c-.55,7.76.94,16.08,5.91,22.27,2.78,2.79,5.58,5.57,8.29,8.44Q309,346.4,297.65,366.71a95.74,95.74,0,0,1-9.16-4.62c-3.09-1.74-6.2-3.43-9.11-5.46q3.63-6.56,7.28-13.1c-2.49-1.43-5-2.83-7.5-4.24-2.45,4.31-4.87,8.64-7.35,12.93a74.28,74.28,0,0,1-13.24-7.17,37.05,37.05,0,0,1,2.6-5.05c3.46-6.14,6.85-12.33,10.39-18.43.33-.92,1.26-.54,1.86-.17,3.53,1.92,7,3.89,10.56,5.83,1.12-2,2.25-4,3.37-6-3.63-2-7.33-3.95-10.92-6-.67-.27-.61-1-.27-1.54,1-2.11,2.2-4.15,3.28-6.24q-4.56-2.55-9.13-5.07-2,3.47-4,6.93l-11.87-6.61-3.4,6,11.88,6.78Q256,327.7,249.15,340c-4.44-2.53-8.93-5-13.33-7.54,2.52-4.44,5-8.88,7.44-13.36-2.5-1.39-5-2.81-7.48-4.21-2.48,4.33-4.9,8.7-7.41,13a149.67,149.67,0,0,1-18.12-9.95,39.21,39.21,0,0,1,2.62-5q9.72-17.33,19.45-34.64c.32-.68.92-1.44,1.75-1a33.84,33.84,0,0,0,14,2.62c6.68-.24,13-2.9,18.53-6.59a20.13,20.13,0,0,0-2.43-1.57c-1.15,1.67-2.46,3.42-4.47,4.09a6.89,6.89,0,0,1-8.87-4.53c-.7-2.2,0-4.49,1.06-6.44l-6.21-3.49a9.9,9.9,0,0,1-3.84,3.86,7,7,0,0,1-9.06-3.17c-1.19-2.41-.43-5.2.67-7.5-1.86-1.1-3.8-2.06-5.56-3.31a9,9,0,0,1-3.25-9.6,9.11,9.11,0,0,1,8.37-6.79c3.53-.19,6.43,2.08,9.4,3.6a11.45,11.45,0,0,1,4.29-4c3-1.39,6.68.17,8.35,2.84,1.41,2.52.6,5.5-.31,8,2,1.22,4.09,2.31,6.13,3.47a9,9,0,0,1,4.18-4,6.93,6.93,0,0,1,9,4.06c.7,2.3,0,4.7-.91,6.84l64.2,36.06a9.22,9.22,0,0,1,4-4,7.06,7.06,0,0,1,8.76,3c1.22,2.49.42,5.33-.4,7.81l71.54,40.46V270.6c-4.22-2-8.81-3.93-11.62-7.81-2.13-2.89-2.53-6.59-2.47-10.07a20.16,20.16,0,0,0-.13-4.53c-.49,4.33.33,9-1.87,13-2,3.87-6.06,6.14-10.1,7.37a31.11,31.11,0,0,1-22-1.09c-4.16-1.9-8.42-4.31-10.85-8.34a33,33,0,0,1-2.21-4.65,15.11,15.11,0,0,1-3.12,5.06c-3.34,3.16-8.07,4.5-12.59,4.56a33.53,33.53,0,0,1-21.66-7.9,21.19,21.19,0,0,1-7.37-11.45c-.82,1.72-1.45,3.59-2.85,5-2.48,2.66-6.28,3.48-9.79,3.53-7.09.12-13.8-3.14-19.27-7.44-5-4.11-9.29-9.87-9.6-16.55q-.39-12.9-.89-25.79c.11-1.6-1.29-2.81-1.23-4.4.37-3.79,4.79-7.15,8.45-5.28a3,3,0,0,0,2.76-.33c13.74-6.45,26.43-14.89,38.67-23.82A454.39,454.39,0,0,0,358.67,139c9.43-8.58,18.56-17.49,27.27-26.81,2.2-2.42,4.72-4.69,6-7.79a47.26,47.26,0,0,1,10-15.22,43.06,43.06,0,0,1,17.14-10.31c1.81-.62,3.71-1,5.52-1.61a13.82,13.82,0,0,1-4.75-5.67,11.51,11.51,0,0,1,2.36-12.21,15.26,15.26,0,0,1,4-2.79V46.22h-8.71V38h8.66ZM428,32c0,2.52,0,5,0,7.55-2.91,0-5.82,0-8.73,0,0,1.64,0,3.28,0,4.93,2.87.22,5.76,0,8.63.18.3,3.8-.08,7.62.24,11.42H433c0-3.86,0-7.73,0-11.59,2.85,0,5.69,0,8.55,0v-5h-8.7c0-2.49,0-5,0-7.46Zm-.16,25.94a9.68,9.68,0,1,0,8,1.29A10,10,0,0,0,427.79,57.91ZM404.27,89.26c-5.38,4.57-10,10.62-11.08,17.76a24.69,24.69,0,0,0,7,3.27,106.24,106.24,0,0,0,35.83,4.46,110.92,110.92,0,0,0,23.46-3.91c3.08-1,6.28-1.89,8.92-3.85a22,22,0,0,0-2.79-8,41.93,41.93,0,0,0-13.51-13.58c-6.24-4-13.48-6.87-21-6.88C421.28,78.78,411.78,83,404.27,89.26Zm-23.61,30.52A445.69,445.69,0,0,1,326.49,168c-12.13,9.16-24.74,17.76-38.28,24.7a40.77,40.77,0,0,0-4.83,2.59c11.81,5.34,24.27,9.12,36.75,12.55a3.09,3.09,0,0,0,3.42-.62c20.75-19.14,38.95-40.88,55.78-63.5a324.56,324.56,0,0,0,20.83-31.52l-8.58-3.88C388.12,112.28,384.27,115.92,380.66,119.78Zm80-7.42a252.23,252.23,0,0,0,13.81,21.73,486.89,486.89,0,0,0,44.62,55.11c5.92,6.19,12.13,12.11,18.22,18.14,1.29,1.38,3.19.5,4.71.11a275.68,275.68,0,0,0,35.48-12.11c-5-2.76-10.21-5.2-15.1-8.19-19.33-11.6-37.18-25.5-54.13-40.32a463.17,463.17,0,0,1-37.1-36.11,14.81,14.81,0,0,1-1.57-2.11C466.61,109.85,463.67,111.19,460.66,112.36Zm-58.67.21a478.39,478.39,0,0,1-77.7,96.21,364.28,364.28,0,0,0,40.54,7.68c10-14.75,17.85-30.83,25.19-47,8.05-17.9,15.08-36.23,22.09-54.55Q407.06,113.69,402,112.57ZM448.63,115c7.74,20.35,15.6,40.68,24.77,60.45,6.57,14.11,13.67,28.05,22.4,41,9.23-1,18.35-2.82,27.45-4.6,4.37-1,8.83-1.7,13-3.29-18.63-17.13-35.13-36.41-50.56-56.43a406.1,406.1,0,0,1-26.84-39.35C455.47,113.54,452.05,114.26,448.63,115Zm-74,88.69c-2.43,4.47-5.37,8.64-7.84,13.07,13.58,2,27.28,3.06,41,3.71q9.86-51.79,16.32-104.14c-3.46-.38-6.91-.8-10.36-1.17C402.1,145.25,390.56,175.55,374.63,203.69Zm62-87.19q6.48,52.23,16.28,104c13.75-.66,27.5-1.76,41.13-3.74-10.61-16.08-19-33.47-26.79-51.08-7.29-16.57-13.73-33.5-20.27-50.37C443.55,115.76,440,115.8,436.64,116.5ZM409.4,220.28c8.11.78,16.28.65,24.41.66,5.81-.2,11.65,0,17.42-.79Q441.54,168.61,435,116.54c-3.12,0-6.24,0-9.37,0C421.24,151.26,415.94,185.88,409.4,220.28Zm-133.27-25a5.54,5.54,0,0,0-2.95,3.77c.1,1.38,1.53,2,2.63,2.49a337.44,337.44,0,0,0,75.54,22.35c21.51,3.81,43.35,5.39,65.16,6,5.18.18,10.36.57,15.54.41,14.64-.62,29.31-.75,43.91-2.13,37.92-3.18,75.51-11.93,110.4-27.27.54-.3,1.28-.69,1.3-1.41-.11-3-3.53-5.49-6.42-4.14C552,208.23,520.44,215.1,488.83,219A485.32,485.32,0,0,1,357,217c-25.83-4.11-51.5-10.31-75.54-20.75C279.82,195.52,277.93,194.35,276.13,195.28Zm-1.6,7.42c.07,6.65.5,13.27.65,19.91.27,3.38-.16,6.84.77,10.15a20.34,20.34,0,0,0,4.51,8,31.76,31.76,0,0,0,17.72,10.57c3.79.81,8,.67,11.41-1.36,2.56-1.5,3.79-4.53,3.85-7.4.35-8.54.83-17.09.75-25.63A355.41,355.41,0,0,1,274.53,202.7ZM546.07,217a35,35,0,0,0,0,5.12c.33,7.4.46,14.82.91,22.21.25,3,2.64,5.44,5.39,6.47,4,1.77,8.61,1,12.71-.21a31.76,31.76,0,0,0,17.56-13.54c3.32-5.44,2.28-12,2.72-18.07.15-5.37.54-10.73.53-16.1A332.15,332.15,0,0,1,546.07,217Zm-229.73.79c0,8.1.39,16.2.49,24.3a15.1,15.1,0,0,0,3.16,9.15c5.56,7.08,14.49,11,23.39,11.39,3.9,0,8-.82,11.17-3.18a10.14,10.14,0,0,0,3.93-8.08c.18-7.54.59-15.08.92-22.61-.14-.63.23-1.84-.68-1.94-5.1-1-10.23-1.85-15.33-2.85C334.29,222.3,325.35,219.87,316.34,217.81ZM501,226.87c-.12,6.28.44,12.56.6,18.84.13,2.66.16,5.33.47,8,.42,3.2,2.92,5.67,5.67,7.11,3.57,1.93,7.78,1.91,11.72,1.65a30.44,30.44,0,0,0,18.93-8.93,15.11,15.11,0,0,0,5-10c.42-8.56.5-17.16.31-25.74A353.59,353.59,0,0,1,501,226.87ZM361.29,227c-.25,2.95.08,5.91,0,8.86,0,5.32.23,10.64.23,16a12.71,12.71,0,0,0,3.71,8.68,27.42,27.42,0,0,0,17.12,7.74c6.22.72,12.92-.31,18-4.16a11.94,11.94,0,0,0,4.62-9.6c.12-7.8.76-15.58.85-23.38C390.94,230.46,376.06,229.17,361.29,227Zm93.24,4.11c-.28,2.62.15,5.24.15,7.86.23,4.73.39,9.46.62,14.19.08,2,0,4.18.76,6.11a12.86,12.86,0,0,0,5.24,5.87,24.77,24.77,0,0,0,12,3.31c7.61.16,15.69-2,21.25-7.39a13,13,0,0,0,4.25-9.21c-.06-8.25.36-16.5.22-24.74Q476.87,230.2,454.53,231.14Zm-46.55.44c.24,8.22.61,16.43,1,24.64,0,3.25,1.93,6.12,4.26,8.23,4.41,3.88,10.4,5.56,16.18,5.76,6.64,0,13.72-1.66,18.53-6.52,2.62-2.46,3.6-6.15,3.63-9.64.23-6.2.5-12.4.74-18.6a14.82,14.82,0,0,0-.06-3.88Q430.11,231.6,408,231.58ZM247.27,236c-1.91.66-2.93,2.51-3.83,4.19q-4.59,8.1-9.08,16.26a5.35,5.35,0,0,0,2.31,7.34,5.14,5.14,0,0,0,6.71-1.94q5.22-9,10.21-18.17a5.26,5.26,0,0,0-6.32-7.68Zm363.13,0a5.21,5.21,0,0,0-3.19,6.59,27.64,27.64,0,0,0,2,3.78q4.07,7.22,8.12,14.45a6.42,6.42,0,0,0,3.06,3.11,5.3,5.3,0,0,0,7-3.36c.73-1.69,0-3.48-.86-5-3.22-5.78-6.44-11.57-9.71-17.31A5.22,5.22,0,0,0,610.4,236Zm9.17,4.08c2.48,4.38,4.92,8.79,7.43,13.16,2.92-1.86,6.83-3.13,8-6.74a7.67,7.67,0,0,0-5.76-9.91C625.62,235.87,622.51,238.31,619.57,240.05ZM226.4,246.86c1.33,3.39,5,4.61,7.9,6.34q3.72-6.58,7.42-13.19c-2.89-1.49-5.69-3.89-9.15-3.46C227.78,236.87,224.46,242.5,226.4,246.86Zm318.19-5.62a3.44,3.44,0,0,0,.8,2.34c.07-.8.14-1.6.2-2.4Zm-229.47.52c-.3.38-.43,1.5.19,1.56C315.61,242.93,315.73,241.81,315.12,241.76Zm-48.82,4.4a5.16,5.16,0,0,0-3.47,2.7q-4.5,8-8.95,15.94a14.33,14.33,0,0,0-1.66,3.49,5.29,5.29,0,0,0,3.37,6.16c2.33.51,5.18-.24,6.38-2.46,3.22-5.66,6.39-11.37,9.59-17a6.17,6.17,0,0,0,1-5.11A5.35,5.35,0,0,0,266.3,246.16Zm326.79,0c-2.31.42-4.51,2.3-4.59,4.76a6.59,6.59,0,0,0,1.12,3.81c2.73,4.83,5.39,9.69,8.14,14.51,1.09,1.8,1.92,4,4,4.92a5.31,5.31,0,0,0,7.28-3.74c.59-2.63-1.23-4.86-2.38-7-2.78-4.91-5.49-9.85-8.3-14.73C597.33,246.81,595.26,245.46,593.09,246.19ZM246.26,259.91c2.17,1.23,4.34,2.44,6.52,3.66,2.46-4.4,4.94-8.8,7.39-13.2-2.16-1.22-4.33-2.42-6.51-3.62Q250,253.33,246.26,259.91Zm354.84-9.54,7.4,13.18,6.5-3.68q-3.69-6.59-7.41-13.17C605.42,247.92,603.25,249.12,601.1,250.37Zm-329,6.72c-2.45,4.39-4.94,8.77-7.37,13.18q32.24,18.11,64.47,36.22,3.7-6.58,7.38-13.2Q304.38,275.17,272.13,257.09Zm252.5,36.17q3.69,6.62,7.41,13.2,32.26-18.07,64.49-36.22-3.69-6.6-7.4-13.18Q556.87,275.14,524.63,293.26ZM423,271c0,.3-.13.87-.17,1.16,1.08,1.64.69,3.62.72,5.47v63a61,61,0,0,0,6.7,3.51c2.46-.69,4.57-2.33,6.88-3.43q0-34.85,0-69.67A33.26,33.26,0,0,1,423,271Zm-154.74,3.13a49.06,49.06,0,0,1-6.18,3.74,36.07,36.07,0,0,1-20.44,3.54c2.34,1.72,5,3,7.47,4.44q31.06,17.47,62.12,35a6.16,6.16,0,0,0,1.36.34,4.38,4.38,0,0,0,1.67,1.24c-1.74-2-3.73-3.84-5.1-6.16-4.12-6.38-4.85-14.23-4.61-21.64C292.44,287.73,280.37,280.87,268.26,274.08Zm288.61,20.39c-.21,7.78-.62,16.2-5.38,22.74-1.18,1.75-2.88,3-4.19,4.65a2.57,2.57,0,0,0,1.66-.49c23.52-13.31,47.13-26.47,70.62-39.83-9.44,1.18-19-2-26.6-7.5C581,280.85,568.88,287.6,556.87,294.47ZM212.19,317.41q7.69,4.33,15.4,8.64c2.54-4.43,5-8.88,7.58-13.31,3.42,1.93,6.94,3.7,10.21,5.88q-3.67,6.64-7.38,13.28l10.53,5.91,12.21-21.73c-3.94-2.24-7.89-4.46-11.82-6.7a73.39,73.39,0,0,1,5.06-8.71c3.92,2.15,7.81,4.35,11.73,6.51a70.61,70.61,0,0,1,4.17-6.74c3.36,1.34,6.35,3.46,9.57,5.09.71.47,2.17.89,1.71,2-1,2.27-2.33,4.4-3.45,6.63,3.94,2.16,7.87,4.36,11.81,6.52-1.53,2.65-2.92,5.39-4.55,8-.31.61-1.17.3-1.64.05-3.57-1.92-7.05-4-10.71-5.82q-6.09,10.79-12.15,21.62c3.52,2,7,4,10.54,5.9,2.49-4.34,4.92-8.7,7.41-13,3.28,1.38,6.3,3.32,9.42,5,1,.36.54,1.49.14,2.13q-3.28,5.86-6.57,11.74,7.69,4.35,15.41,8.65,10.77-19.14,21.51-38.29c-9.05-5.21-18.17-10.28-27.25-15.42-7.49-4.17-15-8.22-22.39-12.62q-10.11-5.66-20.2-11.33c-5-2.68-9.76-5.66-14.81-8.15Q222.93,298.26,212.19,317.41Zm368.88-12.22c-7.66,4-15.13,8.45-22.7,12.66-5.12,3-10.37,5.71-15.41,8.81q10.72,19.13,21.48,38.26c5.15-2.88,10.28-5.79,15.43-8.65-2.45-4.44-4.94-8.85-7.4-13.28a102.18,102.18,0,0,1,10.36-5.7c2.48,4.38,4.94,8.76,7.42,13.13l10.55-5.93q-6.09-10.86-12.2-21.7c-3.36,1.83-6.68,3.7-10,5.55a9.44,9.44,0,0,1-2,.8,54.27,54.27,0,0,1-4.59-8.52c3.73-2.36,7.74-4.25,11.54-6.47-1.33-2.39-2.46-4.88-3.58-7.37,2.87-1.78,5.81-3.44,8.74-5.12a6.78,6.78,0,0,1,2.86-1c1.7,1.91,2.59,4.4,4,6.54,3.88-2.14,7.76-4.31,11.64-6.46a31.76,31.76,0,0,1,4.86,8.81q-5.76,3.27-11.51,6.56,6.11,10.86,12.21,21.71l10.54-5.9q-3.72-6.72-7.47-13.4c3.23-1.78,6.39-3.68,9.66-5.37.56-.38,1,.3,1.3.73,2.3,4.07,4.58,8.14,6.89,12.2q7.73-4.32,15.43-8.67Q638.32,298.2,627.55,279C612,287.57,596.54,296.43,581.07,305.19ZM342.2,289.27c-2.25.74-3.24,3.07-4.32,5-2.85,5.12-5.77,10.21-8.59,15.34a5.3,5.3,0,0,0,1.61,7.08,5.14,5.14,0,0,0,7.23-1.36c3.47-5.87,6.73-11.87,10.08-17.82.84-1.53,1.61-3.44.74-5.14A5.44,5.44,0,0,0,342.2,289.27Zm172.94.11A5.07,5.07,0,0,0,512,294c-.12,1.76,1,3.24,1.74,4.73,2.9,5.35,5.91,10.63,8.94,15.9a5.55,5.55,0,0,0,3.41,2.81,5.32,5.32,0,0,0,6.41-3.72,6.65,6.65,0,0,0-1.09-5.18c-3.22-5.65-6.35-11.35-9.59-17A5.33,5.33,0,0,0,515.14,289.38Zm-173.93,23.8c13.81,7.84,27.72,15.51,41.48,23.44,3.56,2,6.75,4.68,10.49,6.41,7.7,3.62,15,8,22.46,12.06q14.75,8.13,29.45,16.32c5.43,3.1,11,5.92,16.29,9.28l8.54-3.89c-.43-3.08-.75-6.17-1.2-9.24l-.67-.51q-59.76-33.49-119.47-67Q344.88,306.6,341.21,313.18Zm117.86,16.63c-8.86,5.48-18.3,10-27.25,15.29q7.86,4.39,15.75,8.74,36.26-20.31,72.53-40.64-3.69-6.58-7.39-13.17C494.77,309.85,476.94,319.86,459.07,329.81ZM392.4,366.47a52.09,52.09,0,0,1-1.15,10.25l8.59,3.95c2-1,3.86-2.12,5.79-3.19,1.05-.53,1.5-1.72,2.47-2.34,6.83-3.81,13.78-7.4,20.54-11.31-5.08-3.1-10.39-5.84-15.58-8.77Zm-22.32,5.21c-5.29,2.77-11.4,2.78-17,4.57-6.35,1.87-12.59,5.08-16.74,10.38a19.21,19.21,0,0,0-3.63,16,20.62,20.62,0,0,0,12.93,15,21.61,21.61,0,0,0,15.84-1,45.36,45.36,0,0,0,16.07-12.79,32.56,32.56,0,0,1,15.92-10.26c4.18-1.3,8.56-1.62,12.88-2.1a22.52,22.52,0,0,0-4.11-6.15c-3.19-3.35-7.29-6.26-12-6.69a15.5,15.5,0,0,1-3.83,4.76c-2.44,2.09-5.65,2.87-8.77,3.26,1.44,2.54,2.8,5.37,2.52,8.38-.29,2.86-2.19,5.2-4.23,7.09-2.15-3.92-4.86-7.8-8.91-9.94-1.46,3.12-2.54,6.52-4.84,9.17-3,3.64-8.43,5.65-13,3.88a7,7,0,0,1-3.81-8.54,11.9,11.9,0,0,1,8.82-7.66c5.1-.93,10.68-.29,15,2.71,2.93,1.91,5,4.77,7,7.58,1.74-2,3.13-4.69,2.36-7.39-.7-2.85-3.05-4.76-4.8-7,3.64.09,7.57,0,10.7-2.09,4.25-2.68,6-7.91,6.15-12.72.24-5-1.53-9.87-4-14.15C382.28,362.33,377.11,368.37,370.08,371.68Zm100.55-1c.27,4.68,2.06,9.71,6.2,12.31,3.16,2.09,7.06,2.13,10.71,2-2,2.33-4.56,4.55-5,7.77-.39,2.48.86,4.82,2.48,6.61a34,34,0,0,1,5.07-6.14,17.8,17.8,0,0,1,11.09-4.5c3.3-.14,6.79.13,9.72,1.82a11,11,0,0,1,5.23,7.51,6.3,6.3,0,0,1-2,5.92,9.49,9.49,0,0,1-7.38,1.83A13.76,13.76,0,0,1,499,401.3c-2.3-2.57-3.36-5.9-4.56-9.06-4.16,2.14-6.86,6.13-9.13,10.08-2.16-2.4-4.23-5.25-4.31-8.6-.1-2.61,1.47-4.83,2.72-7a18.39,18.39,0,0,1-6.83-1.91,15.79,15.79,0,0,1-5.9-6.15A21.12,21.12,0,0,0,460.45,384c-2.34,2.07-4.52,4.57-5.33,7.66a56.9,56.9,0,0,1,13.22,2.18,33.83,33.83,0,0,1,15.91,10.67,41.91,41.91,0,0,0,17.48,13,20.59,20.59,0,0,0,18.78-2.28c4.72-3.32,7.52-8.85,8.36-14.47a18.5,18.5,0,0,0-4-14.18c-4-5.24-10.22-8.3-16.41-10.23-5.73-1.87-12-1.86-17.42-4.75-6.9-3.35-12.11-9.22-16.36-15.46C472.12,360.55,470.29,365.56,470.63,370.71Zm-42-5.2c-1.68.95-3.39,1.88-5.09,2.81q0,52.83,0,105.65c.38,2.33-1.33,4.39-.57,6.72h15c0-2.84-.55-5.65-.6-8.48q0-51.79,0-103.6c-2.13-1.14-4.2-2.41-6.34-3.52C430.21,364.61,429.35,365.13,428.64,365.51ZM271.08,384.19A102.79,102.79,0,0,1,255,382.46a18.65,18.65,0,0,0,6.35,10c3.77,2.92,8.62,4,13.3,4.27a25.54,25.54,0,0,0-2.38,13.43c.6,5.2,3.34,9.92,6.83,13.73.35-5,1.27-10.05,3.69-14.49A25.7,25.7,0,0,1,300,395.86a20.93,20.93,0,0,1,16.59,3c0,.58,0,1.17,0,1.76-3.71-.39-7.55,3-6.86,6.86a10,10,0,0,0,11.76,7.22,11.62,11.62,0,0,0,6.08-4,13.91,13.91,0,0,0,2-11.68c-1.32-5.24-4.17-10.44-9-13.14a38.27,38.27,0,0,0-18.88-4.4C291.44,381.9,281.34,384,271.08,384.19Zm270.87,1a20.39,20.39,0,0,0-10.43,20.5,11.15,11.15,0,0,0,10,9.26c4.5.18,9.2-3,10-7.57.63-3.81-3.12-7.09-6.78-6.76q0-.92.09-1.83a21.15,21.15,0,0,1,17.58-2.63,24.57,24.57,0,0,1,13,8.43A30.53,30.53,0,0,1,582,423.8a21.85,21.85,0,0,0,7-13.2c.73-4.74-.46-9.54-2.35-13.86,4.32-.24,8.78-1.09,12.4-3.59a16.17,16.17,0,0,0,7.08-10.54c-3.06.16-6,1.08-9.1,1.24-12.79,1.39-25.41-2-38.16-2.32A45.11,45.11,0,0,0,542,385.23ZM348,394.83c-1.18,1.74-2,4-1.19,6.1s3.19,3.34,5.4,3.48a11.17,11.17,0,0,0,8.38-3.62c2.51-2.56,3.8-6,4.66-9.42a29,29,0,0,0-7.73-1.19A12.21,12.21,0,0,0,348,394.83Zm147.69-3.26c1,2.27,1.87,4.62,3.07,6.8A12.09,12.09,0,0,0,507,404.3a7.4,7.4,0,0,0,6.47-1.82c1.49-1.63,1.35-4.1.64-6.05-1.11-2.91-4-4.7-6.8-5.64C503.52,389.55,499.44,390.36,495.72,391.57ZM264,397.76a52.45,52.45,0,0,0-15.69,19.68,51.79,51.79,0,0,0-3.82,25.95,34.36,34.36,0,0,0,3.86,13c3.28,6.21,8.72,11,14.67,14.58A49.79,49.79,0,0,0,307,474.66c.84-.36,2-.62,2.23-1.63.56-1.85,1.12-3.69,1.74-5.51-2.27-.85-4.52-1.78-6.83-2.55-1.07-.44-2.2,0-3.25.29a39.93,39.93,0,0,1-19.57.76,38.3,38.3,0,0,1-18.35-9.14c-2.13-2-4.25-4.24-5.33-7-3-7.42-2.64-15.79-.43-23.37a40.31,40.31,0,0,1,11.92-18.79c.58-.57,1.33-1.1,1.49-1.95.58-2.5.95-5,1.43-7.55a44.51,44.51,0,0,1-5-1.14A3,3,0,0,0,264,397.76Zm20.27,11.85c-3.26,5.47-3.91,12.08-3,18.29-6-4.63-10.34-11.58-10.8-19.24a39,39,0,0,0-8.57,10.47,38.6,38.6,0,0,0-4.15,26.13,17.2,17.2,0,0,0,4.68,9.05A38.56,38.56,0,0,0,280.9,464.4a42.6,42.6,0,0,0,20.68-.76c-1.84-1.79-4.28-3-5.68-5.18a29.26,29.26,0,0,1-4.64-9.86,3,3,0,0,1,.95-2.82,38.46,38.46,0,0,0,9.9,4.65c3.75,1.22,7.79.17,11.55,1.34,3.19,1.07,6.62.37,9.68-.75,2.45-4,5.5-7.82,6.77-12.44.89-2.26,1.86-4.58,1.76-7.07-2.49,1-5.2,2.29-7.95,1.56s-4-3.52-5.23-5.79c-2,1.7-4.16,3.41-6.76,4a9.06,9.06,0,0,1-9.7-4.88A9.36,9.36,0,0,1,303.57,416a10.53,10.53,0,0,1,6.93-3.26c-1.56-2.42-3-5.42-2.11-8.35.79-2.53,3.17-4,5.4-5.17-3.18-2-7.11-2.43-10.79-2.3C295,397.37,288.25,403,284.3,409.61ZM547.36,399.2c2.36,1.11,4.88,2.69,5.55,5.39.86,2.89-.55,5.76-2.19,8.08a12.41,12.41,0,0,1,6.88,3.17,9.32,9.32,0,0,1-7.66,15.6c-3-.14-5.6-2.11-7.36-4.46-1,2.63-2.69,5.34-5.55,6.16s-5.43-.45-7.7-1.85a18.13,18.13,0,0,0,3.41,9.83,82.51,82.51,0,0,1,4.94,8.8c.83,1.79,3,2.06,4.74,2.23,4.5.26,8.82-1.63,13.34-1.27a25.92,25.92,0,0,0,13.31-5.69,3.83,3.83,0,0,1,1.83-.67c-1.09,3.33-1.44,6.92-3.11,10-2,3.49-5,6.26-7.85,9,6.18,2.21,12.94,2.16,19.34,1a36.64,36.64,0,0,0,20.28-11.06,15.53,15.53,0,0,0,3.62-7,38.11,38.11,0,0,0-.81-20.59,43.12,43.12,0,0,0-11.52-17.51,28.33,28.33,0,0,1-2.16,8.59,29.36,29.36,0,0,1-8.59,10.83,41.29,41.29,0,0,0,0-8.89,27.19,27.19,0,0,0-5.27-12.44,22.79,22.79,0,0,0-13.11-9C557,396.46,551.62,396.53,547.36,399.2Zm41.78-.81c.61,2.19,1.09,4.42,1.49,6.66.31,2.09,2.28,3.23,3.57,4.7a39.43,39.43,0,0,1,11.47,25.64c.19,5.77-.09,12-3.26,17-1.64,2.74-4.22,4.68-6.72,6.58a39.79,39.79,0,0,1-33.88,6.67c-1.58-.31-3.2-1.24-4.81-.59-2.26.8-4.5,1.62-6.68,2.6.68,1.65,1.15,3.37,1.7,5.07a3.19,3.19,0,0,0,2.1,1.9,51.11,51.11,0,0,0,13.23,3.23c15.81,1.67,32.5-4.57,42.63-17,4.34-5.28,6.21-12.09,6.89-18.78a49.6,49.6,0,0,0-5.36-27.42,48.94,48.94,0,0,0-14.28-16.84,3.25,3.25,0,0,0-2.48-.87A40.43,40.43,0,0,0,589.14,398.39ZM329,411.81c2.26.33,4.5.7,6.77,1-1.37-2.49-2.76-5-4.14-7.45C330.74,407.51,329.87,409.66,329,411.81Zm196.46,1.06c2.28-.32,4.53-.75,6.81-1.07-.86-2.08-1.71-4.17-2.58-6.24C528.07,407.86,526.88,410.44,525.46,412.87ZM321,418.82a9.89,9.89,0,0,0,.91,10.94,5.27,5.27,0,0,0,4.62,2.09c2.61-.21,4.52-2.22,6.5-3.71,1.31,4.7-.59,9.46-3,13.44-1.21,2.78-2.28,5.75-4.62,7.82-1.17.94-1.38,2.71-2.6,3.53-2.76.4-5.58,1-8.37.54-4-.89-8.28-.45-12.28-1.63-3.13-1-6.23-2.21-9.36-3.25a25.6,25.6,0,0,0,5.22,10c3.91,4.49,9.73,6.85,15.54,7.56-2.28,4.15-3.93,8.89-3.3,13.69a16.39,16.39,0,0,0,5.38,10.47,73.15,73.15,0,0,1,7.65-15.95c3.32-5.29,7.43-10,11.28-14.92.84-1.12,2-2.14,2.19-3.58,1-4.06,3.41-7.56,6.15-10.64,2.31-2.6,2.66-6.19,3.47-9.43,1.46-7.1-2-14.5-7.51-18.93-2.82-2.26-6.53-3.74-10.19-3.12A10.68,10.68,0,0,0,321,418.82Zm-13-4a7.74,7.74,0,0,0-5.3,8.16,7.83,7.83,0,0,0,8.72,6.91c4.48-.38,7.68-5.25,6.52-9.54A7.71,7.71,0,0,0,308.08,414.81Zm240.29,0a7.73,7.73,0,0,0-5.09,9.55,7.77,7.77,0,0,0,15-4A7.76,7.76,0,0,0,548.37,414.84ZM318,416.54c.41.79.84,1.57,1.27,2.36q.71-1.27,1.35-2.55C319.75,416.4,318.87,416.47,318,416.54Zm222.62,0c.45.76.91,1.51,1.37,2.26l1.36-2.26ZM234.89,440.06a6.5,6.5,0,0,0-4.6,7.74,6.36,6.36,0,0,0,7.13,4.92,6.48,6.48,0,0,0,5.59-7.63A6.59,6.59,0,0,0,234.89,440.06Zm388,.05a6.47,6.47,0,1,0,8.25,5.92A6.5,6.5,0,0,0,622.88,440.11ZM242.19,452.28l3.11,1.14q-.59-1.92-1.2-3.81C243.46,450.49,242.82,451.38,242.19,452.28Zm374.93-2.65c-.38,1.26-.77,2.52-1.14,3.79l3.12-1.19C618.45,451.36,617.79,450.49,617.12,449.63ZM238,454.15a7.78,7.78,0,1,0,5.94,14.33c4.22-1.87,5.59-7.76,2.88-11.43A7.73,7.73,0,0,0,238,454.15Zm380.84-.07a7.76,7.76,0,0,0-5.44,9.71,7.87,7.87,0,0,0,10.95,4.69c4.18-1.88,5.53-7.74,2.87-11.39A7.79,7.79,0,0,0,618.8,454.08Zm-7.45,7.51c-.91,1-1.79,2.09-2.67,3.15H612C611.8,463.69,611.58,462.64,611.35,461.59Zm-361.43.06c-.22,1-.42,2.05-.61,3.07h3.32C251.74,463.68,250.83,462.66,249.92,461.65Zm-.43,4.9c-3,1.05-5.2,4.28-4.44,7.46a6.48,6.48,0,0,0,12.77-2.25A6.47,6.47,0,0,0,249.49,466.55Zm358.3.09a6.43,6.43,0,0,0-4.46,6.46,6.49,6.49,0,0,0,13-.44C616.32,468.53,611.74,465.09,607.79,466.64Zm-188.89,16a3.28,3.28,0,0,0-2.34,2.83,21.67,21.67,0,0,0,.5,5.38c1.08,7.09,2.1,14.18,3.26,21.26a4.76,4.76,0,0,0,1.24,2.95,5,5,0,0,0,2.95.7c3.69.06,7.38,0,11.07,0,1.26-.07,2.7.06,3.73-.81s1.05-2.16,1.27-3.31c1.23-8.15,2.54-16.29,3.76-24.44a3.93,3.93,0,0,0-1.46-4.12c-1.24-.83-2.8-.59-4.21-.62-5.18.07-10.41-.39-15.57.31C421.69,482.88,420.29,482.08,418.9,482.61Zm4,34.89c-.12,5-.12,10-.12,15,.07,10,.43,20.08,3.46,29.64.85,1.77,1.87,4.08,4,4.42,2.35-.17,3.45-2.64,4.22-4.55,3.26-9.15,3.34-19,3.41-28.62,0-5.32.19-10.66-.09-16C432.84,517.48,427.86,517.33,422.89,517.5Z"/><path class="cls-2" d="M428,32h4.87c0,2.49,0,5,0,7.46h8.7v5c-2.86,0-5.7,0-8.55,0,0,3.86,0,7.73,0,11.59h-4.89c-.32-3.8.06-7.62-.24-11.42-2.87-.21-5.76,0-8.63-.18,0-1.65,0-3.29,0-4.93,2.91,0,5.82,0,8.73,0C427.94,37,427.92,34.49,428,32Z"/><path class="cls-2" d="M246.26,259.91q3.7-6.57,7.4-13.16c2.18,1.2,4.35,2.4,6.51,3.62-2.45,4.4-4.93,8.8-7.39,13.2C250.6,262.35,248.43,261.14,246.26,259.91Z"/><path class="cls-3" d="M427.79,57.91a10,10,0,0,1,8,1.29A9.76,9.76,0,0,1,430.71,77a9.72,9.72,0,0,1-2.92-19.11Z"/><path class="cls-4" d="M404.27,89.26c7.51-6.27,17-10.48,26.88-10.71,7.51,0,14.75,2.88,21,6.88A41.93,41.93,0,0,1,465.65,99a22,22,0,0,1,2.79,8c-2.64,2-5.84,2.87-8.92,3.85a110.92,110.92,0,0,1-23.46,3.91,106.24,106.24,0,0,1-35.83-4.46,24.69,24.69,0,0,1-7-3.27C394.27,99.88,398.89,93.83,404.27,89.26Z"/><path class="cls-4" d="M402,112.57q5.06,1.11,10.12,2.3c-7,18.32-14,36.65-22.09,54.55-7.34,16.21-15.18,32.29-25.19,47a364.28,364.28,0,0,1-40.54-7.68A478.39,478.39,0,0,0,402,112.57Z"/><path class="cls-4" d="M448.63,115c3.42-.74,6.84-1.46,10.25-2.26a406.1,406.1,0,0,0,26.84,39.35c15.43,20,31.93,39.3,50.56,56.43-4.2,1.59-8.66,2.31-13,3.29-9.1,1.78-18.22,3.61-27.45,4.6-8.73-12.91-15.83-26.85-22.4-41C464.23,155.68,456.37,135.35,448.63,115Z"/><path class="cls-4" d="M409.4,220.28c6.54-34.4,11.84-69,16.27-103.75,3.13,0,6.25,0,9.37,0q6.51,52,16.19,103.61c-5.77.81-11.61.59-17.42.79C425.68,220.93,417.51,221.06,409.4,220.28Z"/><path class="cls-4" d="M274.53,202.7a355.41,355.41,0,0,0,39.66,14.24c.08,8.54-.4,17.09-.75,25.63-.06,2.87-1.29,5.9-3.85,7.4-3.4,2-7.62,2.17-11.41,1.36a31.76,31.76,0,0,1-17.72-10.57,20.34,20.34,0,0,1-4.51-8c-.93-3.31-.5-6.77-.77-10.15C275,216,274.6,209.35,274.53,202.7Z"/><path class="cls-4" d="M546.07,217a332.15,332.15,0,0,0,39.78-14.12c0,5.37-.38,10.73-.53,16.1-.44,6.05.6,12.63-2.72,18.07A31.76,31.76,0,0,1,565,250.61c-4.1,1.18-8.66,2-12.71.21-2.75-1-5.14-3.44-5.39-6.47-.45-7.39-.58-14.81-.91-22.21A35,35,0,0,1,546.07,217Z"/><path class="cls-4" d="M361.29,227c14.77,2.14,29.65,3.43,44.56,4.1-.09,7.8-.73,15.58-.85,23.38a11.94,11.94,0,0,1-4.62,9.6c-5.08,3.85-11.78,4.88-18,4.16a27.42,27.42,0,0,1-17.12-7.74,12.71,12.71,0,0,1-3.71-8.68c0-5.32-.27-10.64-.23-16C361.37,232.94,361,230,361.29,227Z"/><path class="cls-4" d="M454.53,231.14q22.31-.91,44.45-4c.14,8.24-.28,16.49-.22,24.74a13,13,0,0,1-4.25,9.21c-5.56,5.44-13.64,7.55-21.25,7.39a24.77,24.77,0,0,1-12-3.31,12.86,12.86,0,0,1-5.24-5.87c-.8-1.93-.68-4.07-.76-6.11-.23-4.73-.39-9.46-.62-14.19C454.68,236.38,454.25,233.76,454.53,231.14Z"/><path class="cls-5" d="M380.66,119.78c3.61-3.86,7.46-7.5,10.92-11.49l8.58,3.88a324.56,324.56,0,0,1-20.83,31.52c-16.83,22.62-35,44.36-55.78,63.5a3.09,3.09,0,0,1-3.42.62c-12.48-3.43-24.94-7.21-36.75-12.55a40.77,40.77,0,0,1,4.83-2.59c13.54-6.94,26.15-15.54,38.28-24.7A445.69,445.69,0,0,0,380.66,119.78Z"/><path class="cls-5" d="M460.66,112.36c3-1.17,5.95-2.51,8.94-3.75a14.81,14.81,0,0,0,1.57,2.11,463.17,463.17,0,0,0,37.1,36.11c17,14.82,34.8,28.72,54.13,40.32,4.89,3,10.08,5.43,15.1,8.19A275.68,275.68,0,0,1,542,207.45c-1.52.39-3.42,1.27-4.71-.11-6.09-6-12.3-12-18.22-18.14a486.89,486.89,0,0,1-44.62-55.11A252.23,252.23,0,0,1,460.66,112.36Z"/><path class="cls-5" d="M374.63,203.69c15.93-28.14,27.47-58.44,39.1-88.53,3.45.37,6.9.79,10.36,1.17q-6.55,52.29-16.32,104.14c-13.7-.65-27.4-1.76-41-3.71C369.26,212.33,372.2,208.16,374.63,203.69Z"/><path class="cls-5" d="M436.64,116.5c3.4-.7,6.91-.74,10.35-1.21,6.54,16.87,13,33.8,20.27,50.37,7.75,17.61,16.18,35,26.79,51.08-13.63,2-27.38,3.08-41.13,3.74Q443.05,168.77,436.64,116.5Z"/><path class="cls-5" d="M316.34,217.81c9,2.06,18,4.49,27.05,6.18,5.1,1,10.23,1.87,15.33,2.85.91.1.54,1.31.68,1.94-.33,7.53-.74,15.07-.92,22.61a10.14,10.14,0,0,1-3.93,8.08c-3.18,2.36-7.27,3.18-11.17,3.18-8.9-.36-17.83-4.31-23.39-11.39a15.1,15.1,0,0,1-3.16-9.15C316.73,234,316.38,225.91,316.34,217.81Z"/><path class="cls-5" d="M501,226.87a353.59,353.59,0,0,0,42.73-9.07c-.26,4.4,0,8.81-.13,13.22-.11,4.17-.38,8.34-.18,12.52a15.11,15.11,0,0,1-5,10,30.44,30.44,0,0,1-18.93,8.93c-3.94.26-8.15.28-11.72-1.65-2.75-1.44-5.25-3.91-5.67-7.11-.31-2.65-.34-5.32-.47-8C501.4,239.43,500.84,233.15,501,226.87Z"/><path class="cls-5" d="M408,231.58q22.13,0,44.24,0a14.82,14.82,0,0,1,.06,3.88c-.24,6.2-.51,12.4-.74,18.6,0,3.49-1,7.18-3.63,9.64-4.81,4.86-11.89,6.55-18.53,6.52-5.78-.2-11.77-1.88-16.18-5.76-2.33-2.11-4.28-5-4.26-8.23C408.59,248,408.22,239.8,408,231.58Z"/><path class="cls-6" d="M276.13,195.28c1.8-.93,3.69.24,5.35.92,24,10.44,49.71,16.64,75.54,20.75A485.32,485.32,0,0,0,488.83,219c31.61-3.93,63.15-10.8,92.41-23.66,2.89-1.35,6.31,1.11,6.42,4.14,0,.72-.76,1.11-1.3,1.41C551.47,216.26,513.88,225,476,228.19c-14.6,1.38-29.27,1.51-43.91,2.13-5.18.16-10.36-.23-15.54-.41-21.81-.63-43.65-2.21-65.16-6a337.44,337.44,0,0,1-75.54-22.35c-1.1-.49-2.53-1.11-2.63-2.49A5.54,5.54,0,0,1,276.13,195.28Z"/><path class="cls-6" d="M247.27,236a5.26,5.26,0,0,1,6.32,7.68q-5,9.15-10.21,18.17a5.14,5.14,0,0,1-6.71,1.94,5.35,5.35,0,0,1-2.31-7.34q4.47-8.18,9.08-16.26C244.34,238.47,245.36,236.62,247.27,236Z"/><path class="cls-6" d="M226.4,246.86c-1.94-4.36,1.38-10,6.17-10.31,3.46-.43,6.26,2,9.15,3.46q-3.71,6.6-7.42,13.19C231.43,251.47,227.73,250.25,226.4,246.86Z"/><path class="cls-6" d="M266.3,246.16a5.35,5.35,0,0,1,6.29,3.68,6.17,6.17,0,0,1-1,5.11c-3.2,5.67-6.37,11.38-9.59,17-1.2,2.22-4.05,3-6.38,2.46a5.29,5.29,0,0,1-3.37-6.16,14.33,14.33,0,0,1,1.66-3.49q4.47-8,8.95-15.94A5.16,5.16,0,0,1,266.3,246.16Z"/><path class="cls-6" d="M548.37,414.84a7.75,7.75,0,1,1,4,14.94,7.84,7.84,0,0,1-9.13-5.39A7.73,7.73,0,0,1,548.37,414.84Z"/><path class="cls-6" d="M622.88,440.11a6.5,6.5,0,0,1,8.25,5.92,6.43,6.43,0,0,1-7.07,6.75,6.48,6.48,0,0,1-1.18-12.67Z"/><path class="cls-6" d="M618.8,454.08a7.79,7.79,0,0,1,8.38,3c2.66,3.65,1.31,9.51-2.87,11.39a7.87,7.87,0,0,1-10.95-4.69A7.76,7.76,0,0,1,618.8,454.08Z"/><path class="cls-6" d="M607.79,466.64c4-1.55,8.53,1.89,8.52,6a6.49,6.49,0,0,1-13,.44A6.43,6.43,0,0,1,607.79,466.64Z"/><path class="cls-7" d="M543.69,217.8c.19,8.58.11,17.18-.31,25.74-.2-4.18.07-8.35.18-12.52C543.68,226.61,543.43,222.2,543.69,217.8Z"/><path class="cls-8" d="M610.4,236a5.22,5.22,0,0,1,6.37,2.28c3.27,5.74,6.49,11.53,9.71,17.31.83,1.5,1.59,3.29.86,5a5.3,5.3,0,0,1-7,3.36,6.42,6.42,0,0,1-3.06-3.11q-4-7.23-8.12-14.45a27.64,27.64,0,0,1-2-3.78A5.21,5.21,0,0,1,610.4,236Z"/><path class="cls-8" d="M593.09,246.19c2.17-.73,4.24.62,5.27,2.49,2.81,4.88,5.52,9.82,8.3,14.73,1.15,2.18,3,4.41,2.38,7a5.31,5.31,0,0,1-7.28,3.74c-2.08-.89-2.91-3.12-4-4.92-2.75-4.82-5.41-9.68-8.14-14.51A6.59,6.59,0,0,1,588.5,251C588.58,248.49,590.78,246.61,593.09,246.19Z"/><path class="cls-8" d="M515.14,289.38a5.33,5.33,0,0,1,6.7,2.14c3.24,5.64,6.37,11.34,9.59,17a6.65,6.65,0,0,1,1.09,5.18,5.32,5.32,0,0,1-6.41,3.72,5.55,5.55,0,0,1-3.41-2.81c-3-5.27-6-10.55-8.94-15.9-.78-1.49-1.86-3-1.74-4.73A5.07,5.07,0,0,1,515.14,289.38Z"/><path class="cls-8" d="M308.08,414.81a7.71,7.71,0,0,1,9.94,5.53c1.16,4.29-2,9.16-6.52,9.54a7.83,7.83,0,0,1-8.72-6.91A7.74,7.74,0,0,1,308.08,414.81Z"/><path class="cls-8" d="M234.89,440.06a6.59,6.59,0,0,1,8.12,5,6.48,6.48,0,0,1-5.59,7.63,6.36,6.36,0,0,1-7.13-4.92A6.5,6.5,0,0,1,234.89,440.06Z"/><path class="cls-8" d="M238,454.15a7.73,7.73,0,0,1,8.82,2.9c2.71,3.67,1.34,9.56-2.88,11.43A7.78,7.78,0,1,1,238,454.15Z"/><path class="cls-9" d="M619.57,240.05c2.94-1.74,6-4.18,9.69-3.49a7.67,7.67,0,0,1,5.76,9.91c-1.19,3.61-5.1,4.88-8,6.74C624.49,248.84,622.05,244.43,619.57,240.05Z"/><path class="cls-9" d="M601.1,250.37c2.15-1.25,4.32-2.45,6.49-3.67q3.72,6.59,7.41,13.17l-6.5,3.68Z"/><path class="cls-9" d="M242.19,452.28c.63-.9,1.27-1.79,1.91-2.67q.61,1.89,1.2,3.81Z"/><path class="cls-9" d="M617.12,449.63c.67.86,1.33,1.73,2,2.6L616,453.42C616.35,452.15,616.74,450.89,617.12,449.63Z"/><path class="cls-9" d="M611.35,461.59c.23,1.05.45,2.1.67,3.15h-3.34C609.56,463.68,610.44,462.62,611.35,461.59Z"/><path class="cls-9" d="M249.49,466.55a6.47,6.47,0,0,1,8.33,5.21A6.48,6.48,0,0,1,245.05,474C244.29,470.83,246.54,467.6,249.49,466.55Z"/><path class="cls-10" d="M544.59,241.24l1-.06c-.06.8-.13,1.6-.2,2.4A3.44,3.44,0,0,1,544.59,241.24Z"/><path class="cls-11" d="M315.12,241.76c.61.05.49,1.17.19,1.56C314.69,243.26,314.82,242.14,315.12,241.76Z"/><path class="cls-12" d="M272.13,257.09q32.25,18.09,64.48,36.2-3.69,6.6-7.38,13.2Q297,288.4,264.76,270.27C267.19,265.86,269.68,261.48,272.13,257.09Z"/><path class="cls-12" d="M423,271a33.26,33.26,0,0,0,14.15,0q0,34.83,0,69.67c-2.31,1.1-4.42,2.74-6.88,3.43a61,61,0,0,1-6.7-3.51v-63c0-1.85.36-3.83-.72-5.47C422.87,271.82,423,271.25,423,271Z"/><path class="cls-12" d="M268.26,274.08c12.11,6.79,24.18,13.65,36.29,20.47-.24,7.41.49,15.26,4.61,21.64,1.37,2.32,3.36,4.15,5.1,6.16a4.38,4.38,0,0,1-1.67-1.24,6.16,6.16,0,0,1-1.36-.34q-31.1-17.43-62.12-35c-2.49-1.48-5.13-2.72-7.47-4.44a36.07,36.07,0,0,0,20.44-3.54A49.06,49.06,0,0,0,268.26,274.08Z"/><path class="cls-12" d="M212.19,317.41q10.73-19.16,21.49-38.29c5,2.49,9.85,5.47,14.81,8.15q10.09,5.67,20.2,11.33c7.35,4.4,14.9,8.45,22.39,12.62,9.08,5.14,18.2,10.21,27.25,15.42q-10.75,19.14-21.51,38.29-7.71-4.31-15.41-8.65,3.27-5.88,6.57-11.74c.4-.64.82-1.77-.14-2.13-3.12-1.69-6.14-3.63-9.42-5-2.49,4.33-4.92,8.69-7.41,13-3.52-1.95-7-3.94-10.54-5.9q6.07-10.81,12.15-21.62c3.66,1.78,7.14,3.9,10.71,5.82.47.25,1.33.56,1.64-.05,1.63-2.59,3-5.33,4.55-8-3.94-2.16-7.87-4.36-11.81-6.52,1.12-2.23,2.43-4.36,3.45-6.63.46-1.13-1-1.55-1.71-2-3.22-1.63-6.21-3.75-9.57-5.09a70.61,70.61,0,0,0-4.17,6.74c-3.92-2.16-7.81-4.36-11.73-6.51a73.39,73.39,0,0,0-5.06,8.71c3.93,2.24,7.88,4.46,11.82,6.7l-12.21,21.73L238,331.9q3.69-6.64,7.38-13.28c-3.27-2.18-6.79-3.95-10.21-5.88-2.53,4.43-5,8.88-7.58,13.31Q219.88,321.75,212.19,317.41Z"/><path class="cls-12" d="M341.21,313.18q3.68-6.57,7.37-13.15,59.75,33.5,119.47,67l.67.51c.45,3.07.77,6.16,1.2,9.24l-8.54,3.89c-5.27-3.36-10.86-6.18-16.29-9.28q-14.71-8.18-29.45-16.32c-7.47-4-14.76-8.44-22.46-12.06-3.74-1.73-6.93-4.37-10.49-6.41C368.93,328.69,355,321,341.21,313.18Z"/><path class="cls-12" d="M428.64,365.51c.71-.38,1.57-.9,2.36-.43,2.14,1.11,4.21,2.38,6.34,3.52q0,51.79,0,103.6c.05,2.83.62,5.64.6,8.48H423c-.76-2.33.95-4.39.57-6.72q0-52.83,0-105.65C425.25,367.39,427,366.46,428.64,365.51Z"/><path class="cls-12" d="M418.9,482.61c1.39-.53,2.79.27,4.2.14,5.16-.7,10.39-.24,15.57-.31,1.41,0,3-.21,4.21.62a3.93,3.93,0,0,1,1.46,4.12c-1.22,8.15-2.53,16.29-3.76,24.44-.22,1.15-.36,2.47-1.27,3.31s-2.47.74-3.73.81c-3.69,0-7.38,0-11.07,0a5,5,0,0,1-2.95-.7,4.76,4.76,0,0,1-1.24-2.95c-1.16-7.08-2.18-14.17-3.26-21.26a21.67,21.67,0,0,1-.5-5.38A3.28,3.28,0,0,1,418.9,482.61Z"/><path class="cls-13" d="M524.63,293.26q32.25-18.09,64.5-36.2,3.72,6.57,7.4,13.18Q564.28,288.33,532,306.46,528.34,299.86,524.63,293.26Z"/><path class="cls-13" d="M556.87,294.47C568.88,287.6,581,280.85,593,274c7.6,5.54,17.16,8.68,26.6,7.5-23.49,13.36-47.1,26.52-70.62,39.83a2.57,2.57,0,0,1-1.66.49c1.31-1.63,3-2.9,4.19-4.65C556.25,310.67,556.66,302.25,556.87,294.47Z"/><path class="cls-13" d="M459.07,329.81c17.87-9.95,35.7-20,53.64-29.78q3.7,6.57,7.39,13.17-36.25,20.34-72.53,40.64-7.87-4.36-15.75-8.74C440.77,339.78,450.21,335.29,459.07,329.81Z"/><path class="cls-13" d="M321,418.82a10.68,10.68,0,0,1,7.66-5.13c3.66-.62,7.37.86,10.19,3.12,5.53,4.43,9,11.83,7.51,18.93-.81,3.24-1.16,6.83-3.47,9.43-2.74,3.08-5.17,6.58-6.15,10.64-.24,1.44-1.35,2.46-2.19,3.58-3.85,4.9-8,9.63-11.28,14.92a73.15,73.15,0,0,0-7.65,15.95,16.39,16.39,0,0,1-5.38-10.47c-.63-4.8,1-9.54,3.3-13.69-5.81-.71-11.63-3.07-15.54-7.56a25.6,25.6,0,0,1-5.22-10c3.13,1,6.23,2.2,9.36,3.25,4,1.18,8.23.74,12.28,1.63,2.79.45,5.61-.14,8.37-.54,1.22-.82,1.43-2.59,2.6-3.53,2.34-2.07,3.41-5,4.62-7.82,2.43-4,4.33-8.74,3-13.44-2,1.49-3.89,3.5-6.5,3.71a5.27,5.27,0,0,1-4.62-2.09A9.89,9.89,0,0,1,321,418.82Z"/><path class="cls-14" d="M581.07,305.19c15.47-8.76,30.89-17.62,46.48-26.17q10.79,19.17,21.54,38.35-7.71,4.35-15.43,8.67c-2.31-4.06-4.59-8.13-6.89-12.2-.26-.43-.74-1.11-1.3-.73-3.27,1.69-6.43,3.59-9.66,5.37q3.74,6.69,7.47,13.4l-10.54,5.9q-6.12-10.84-12.21-21.71,5.75-3.3,11.51-6.56a31.76,31.76,0,0,0-4.86-8.81c-3.88,2.15-7.76,4.32-11.64,6.46-1.38-2.14-2.27-4.63-4-6.54a6.78,6.78,0,0,0-2.86,1c-2.93,1.68-5.87,3.34-8.74,5.12,1.12,2.49,2.25,5,3.58,7.37-3.8,2.22-7.81,4.11-11.54,6.47a54.27,54.27,0,0,0,4.59,8.52,9.44,9.44,0,0,0,2-.8c3.34-1.85,6.66-3.72,10-5.55q6.1,10.84,12.2,21.7l-10.55,5.93c-2.48-4.37-4.94-8.75-7.42-13.13a102.18,102.18,0,0,0-10.36,5.7c2.46,4.43,4.95,8.84,7.4,13.28-5.15,2.86-10.28,5.77-15.43,8.65Q553.7,345.78,543,326.66c5-3.1,10.29-5.85,15.41-8.81C565.94,313.64,573.41,309.23,581.07,305.19Z"/><path class="cls-14" d="M329,411.81c.87-2.15,1.74-4.3,2.63-6.43,1.38,2.47,2.77,5,4.14,7.45C333.5,412.51,331.26,412.14,329,411.81Z"/><path class="cls-14" d="M525.46,412.87c1.42-2.43,2.61-5,4.23-7.31.87,2.07,1.72,4.16,2.58,6.24C530,412.12,527.74,412.55,525.46,412.87Z"/><path class="cls-12" d="M342.2,289.27a5.44,5.44,0,0,1,6.75,3.07c.87,1.7.1,3.61-.74,5.14-3.35,5.95-6.61,11.95-10.08,17.82a5.14,5.14,0,0,1-7.23,1.36,5.3,5.3,0,0,1-1.61-7.08c2.82-5.13,5.74-10.22,8.59-15.34C339,292.34,340,290,342.2,289.27Z"/><path class="cls-12" d="M470.63,370.71c-.34-5.15,1.49-10.16,4-14.58,4.25,6.24,9.46,12.11,16.36,15.46,5.4,2.89,11.69,2.88,17.42,4.75,6.19,1.93,12.37,5,16.41,10.23a18.5,18.5,0,0,1,4,14.18c-.84,5.62-3.64,11.15-8.36,14.47a20.59,20.59,0,0,1-18.78,2.28,41.91,41.91,0,0,1-17.48-13,33.83,33.83,0,0,0-15.91-10.67,56.9,56.9,0,0,0-13.22-2.18c.81-3.09,3-5.59,5.33-7.66a21.12,21.12,0,0,1,10.49-5.32,15.79,15.79,0,0,0,5.9,6.15,18.39,18.39,0,0,0,6.83,1.91c-1.25,2.16-2.82,4.38-2.72,7,.08,3.35,2.15,6.2,4.31,8.6,2.27-3.95,5-7.94,9.13-10.08,1.2,3.16,2.26,6.49,4.56,9.06a13.76,13.76,0,0,0,7.81,4.56,9.49,9.49,0,0,0,7.38-1.83,6.3,6.3,0,0,0,2-5.92A11,11,0,0,0,511,390.6c-2.93-1.69-6.42-2-9.72-1.82a17.8,17.8,0,0,0-11.09,4.5,34,34,0,0,0-5.07,6.14c-1.62-1.79-2.87-4.13-2.48-6.61.39-3.22,3-5.44,5-7.77-3.65.11-7.55.07-10.71-2C472.69,380.42,470.9,375.39,470.63,370.71Z"/><path class="cls-12" d="M542,385.23a45.11,45.11,0,0,1,16.9-3.7c12.75.28,25.37,3.71,38.16,2.32,3.07-.16,6-1.08,9.1-1.24A16.17,16.17,0,0,1,599,393.15c-3.62,2.5-8.08,3.35-12.4,3.59,1.89,4.32,3.08,9.12,2.35,13.86a21.85,21.85,0,0,1-7,13.2,30.53,30.53,0,0,0-6.61-19.17,24.57,24.57,0,0,0-13-8.43,21.15,21.15,0,0,0-17.58,2.63q-.06.92-.09,1.83c3.66-.33,7.41,2.95,6.78,6.76-.79,4.56-5.49,7.75-10,7.57a11.15,11.15,0,0,1-10-9.26A20.39,20.39,0,0,1,542,385.23Z"/><path class="cls-12" d="M589.14,398.39a40.43,40.43,0,0,1,5.61-1.42,3.25,3.25,0,0,1,2.48.87,48.94,48.94,0,0,1,14.28,16.84,49.6,49.6,0,0,1,5.36,27.42c-.68,6.69-2.55,13.5-6.89,18.78-10.13,12.4-26.82,18.64-42.63,17a51.11,51.11,0,0,1-13.23-3.23,3.19,3.19,0,0,1-2.1-1.9c-.55-1.7-1-3.42-1.7-5.07,2.18-1,4.42-1.8,6.68-2.6,1.61-.65,3.23.28,4.81.59A39.79,39.79,0,0,0,595.69,459c2.5-1.9,5.08-3.84,6.72-6.58,3.17-5,3.45-11.23,3.26-17a39.43,39.43,0,0,0-11.47-25.64c-1.29-1.47-3.26-2.61-3.57-4.7C590.23,402.81,589.75,400.58,589.14,398.39Z"/><path class="cls-12" d="M527.08,414.23c4.74-1.72,10.73.16,13.21,4.66a10.24,10.24,0,0,1-1.08,11,5.26,5.26,0,0,1-4.82,1.91c-2.46-.32-4.28-2.18-6.14-3.63-1.07,3.57-.18,7.42,1.4,10.71,2.09,4,4.58,7.86,6.76,11.85.6,1.1,1.42,2.32,2.79,2.45,2,.22,3.93.17,5.9.37,2.16.35,4-1.17,6.21-.9a32.38,32.38,0,0,0,17.13-4.52,22.67,22.67,0,0,1-7.63,12.69c-3.68,3.12-8.42,4.63-13.15,5.24a29.73,29.73,0,0,1,3.3,9.08c.49,5.4-.87,11.44-5.35,14.93a77,77,0,0,0-9.54-18.6c-2.67-3.95-5.85-7.51-8.6-11.4a49.61,49.61,0,0,0-3.8-4.62c-3.18-3.62-3.48-9.13-7.42-12.15l-.31,0-.15-.13c.69-2.33-.35-4.74-.76-7a15.84,15.84,0,0,1,.85-10.44C518,420.65,521.85,416.09,527.08,414.23Z"/><path class="cls-12" d="M422.89,517.5c5-.17,9.95,0,14.92-.07.28,5.31.07,10.65.09,16-.07,9.6-.15,19.47-3.41,28.62-.77,1.91-1.87,4.38-4.22,4.55-2.17-.34-3.19-2.65-4-4.42-3-9.56-3.39-19.69-3.46-29.64C422.77,527.5,422.77,522.5,422.89,517.5Z"/><path class="cls-15" d="M392.4,366.47l20.66-11.41c5.19,2.93,10.5,5.67,15.58,8.77-6.76,3.91-13.71,7.5-20.54,11.31-1,.62-1.42,1.81-2.47,2.34-1.93,1.07-3.84,2.15-5.79,3.19l-8.59-3.95A52.09,52.09,0,0,0,392.4,366.47Z"/><path class="cls-15" d="M370.08,371.68c7-3.31,12.2-9.35,16.56-15.6,2.46,4.28,4.23,9.14,4,14.15-.12,4.81-1.9,10-6.15,12.72-3.13,2.12-7.06,2.18-10.7,2.09,1.75,2.2,4.1,4.11,4.8,7,.77,2.7-.62,5.4-2.36,7.39-2-2.81-4.06-5.67-7-7.58-4.35-3-9.93-3.64-15-2.71a11.9,11.9,0,0,0-8.82,7.66,7,7,0,0,0,3.81,8.54c4.54,1.77,9.94-.24,13-3.88,2.3-2.65,3.38-6.05,4.84-9.17,4.05,2.14,6.76,6,8.91,9.94,2-1.89,3.94-4.23,4.23-7.09.28-3-1.08-5.84-2.52-8.38,3.12-.39,6.33-1.17,8.77-3.26a15.5,15.5,0,0,0,3.83-4.76c4.73.43,8.83,3.34,12,6.69a22.52,22.52,0,0,1,4.11,6.15c-4.32.48-8.7.8-12.88,2.1a32.56,32.56,0,0,0-15.92,10.26,45.36,45.36,0,0,1-16.07,12.79,21.61,21.61,0,0,1-15.84,1,20.62,20.62,0,0,1-12.93-15,19.21,19.21,0,0,1,3.63-16c4.15-5.3,10.39-8.51,16.74-10.38C358.68,374.46,364.79,374.45,370.08,371.68Z"/><path class="cls-15" d="M271.08,384.19c10.26-.15,20.36-2.29,30.6-2.68a38.27,38.27,0,0,1,18.88,4.4c4.86,2.7,7.71,7.9,9,13.14a13.91,13.91,0,0,1-2,11.68,11.62,11.62,0,0,1-6.08,4,10,10,0,0,1-11.76-7.22c-.69-3.83,3.15-7.25,6.86-6.86,0-.59,0-1.18,0-1.76a20.93,20.93,0,0,0-16.59-3,25.7,25.7,0,0,0-17.2,13.54c-2.42,4.44-3.34,9.49-3.69,14.49-3.49-3.81-6.23-8.53-6.83-13.73a25.54,25.54,0,0,1,2.38-13.43c-4.68-.29-9.53-1.35-13.3-4.27a18.65,18.65,0,0,1-6.35-10A102.79,102.79,0,0,0,271.08,384.19Z"/><path class="cls-15" d="M264,397.76a3,3,0,0,1,3-.72,44.51,44.51,0,0,0,5,1.14c-.48,2.51-.85,5.05-1.43,7.55-.16.85-.91,1.38-1.49,1.95a40.31,40.31,0,0,0-11.92,18.79c-2.21,7.58-2.52,15.95.43,23.37,1.08,2.8,3.2,5,5.33,7A38.3,38.3,0,0,0,281.28,466a39.93,39.93,0,0,0,19.57-.76c1-.27,2.18-.73,3.25-.29,2.31.77,4.56,1.7,6.83,2.55-.62,1.82-1.18,3.66-1.74,5.51-.26,1-1.39,1.27-2.23,1.63a49.79,49.79,0,0,1-43.91-3.72c-5.95-3.59-11.39-8.37-14.67-14.58a34.36,34.36,0,0,1-3.86-13,51.79,51.79,0,0,1,3.82-25.95A52.45,52.45,0,0,1,264,397.76Z"/><path class="cls-15" d="M249.92,461.65c.91,1,1.82,2,2.71,3.07h-3.32C249.5,463.7,249.7,462.67,249.92,461.65Z"/><path class="cls-16" d="M318,416.54c.87-.07,1.75-.14,2.62-.19q-.64,1.27-1.35,2.55C318.84,418.11,318.41,417.33,318,416.54Z"/><path class="cls-16" d="M540.62,416.5h2.73L542,418.76C541.53,418,541.07,417.26,540.62,416.5Z"/><path class="cls-17" d="M515.94,443.3l.31,0c3.94,3,4.24,8.53,7.42,12.15a49.61,49.61,0,0,1,3.8,4.62c2.75,3.89,5.93,7.45,8.6,11.4a77,77,0,0,1,9.54,18.6c4.48-3.49,5.84-9.53,5.35-14.93.22.68.46,1.36.68,2.06a45,45,0,0,1-.51,7.77c-1.08,3.29-3.56,5.92-6.24,8-1.7-4.15-3.06-8.44-5-12.47a54.58,54.58,0,0,0-4.69-7.27c-2.72-3.79-5.53-7.53-8.29-11.3-1.47-2-3.6-3.5-4.88-5.68-2.33-3.43-3.11-7.75-6-10.81C515.83,444.8,515.15,443.81,515.94,443.3Z"/></svg>