<?xml version="1.0" encoding="UTF-8" ?>
<!DOCTYPE svg PUBLIC "-//W3C//DTD SVG 1.1//EN" "http://www.w3.org/Graphics/SVG/1.1/DTD/svg11.dtd">
<svg width="512pt" height="512pt" viewBox="0 0 512 512" version="1.1" xmlns="http://www.w3.org/2000/svg">
<g id="#7cd9f2ff">
<path fill="#7cd9f2" opacity="1.00" d=" M 237.53 0.00 L 242.46 0.00 C 264.14 0.67 285.75 6.44 304.44 17.56 C 325.51 29.82 342.94 48.27 353.98 70.01 C 364.70 90.86 369.42 114.73 367.43 138.09 C 367.23 144.69 365.50 151.10 364.63 157.62 C 384.41 151.41 405.80 150.23 426.00 155.15 C 448.31 160.39 468.80 172.85 483.92 190.06 C 501.39 209.58 511.26 235.39 512.00 261.53 L 512.00 266.47 C 511.43 281.14 508.33 295.71 502.50 309.21 C 496.67 315.50 491.88 322.71 485.54 328.55 C 465.51 348.07 437.94 359.33 410.03 359.94 C 401.36 360.09 392.69 359.98 384.02 359.97 C 383.93 333.30 384.08 306.62 383.97 279.95 C 383.81 277.11 382.31 274.64 380.33 272.70 C 359.93 252.41 339.59 232.07 319.30 211.67 C 317.35 209.69 314.89 208.18 312.06 208.02 C 306.71 207.80 301.36 208.02 296.01 208.01 C 296.09 192.05 295.81 176.07 296.12 160.11 C 301.73 159.72 307.38 160.36 312.98 159.79 C 318.34 159.49 321.66 152.65 318.85 148.18 C 316.24 144.21 312.41 141.26 309.16 137.85 C 294.17 122.77 278.99 107.88 264.14 92.67 C 261.92 90.46 259.41 87.82 256.00 87.97 C 253.09 87.85 250.73 89.83 248.73 91.71 C 231.09 109.41 213.43 127.10 195.70 144.72 C 194.57 145.93 193.44 147.18 192.68 148.67 C 190.58 152.95 193.31 159.00 198.16 159.75 C 203.07 160.36 208.04 159.88 212.98 160.05 C 213.74 160.05 215.24 160.05 215.99 160.05 C 216.00 176.03 216.01 192.02 215.99 208.00 C 194.00 207.99 172.01 208.02 150.01 207.98 C 144.23 208.24 138.29 207.23 132.62 208.70 C 128.83 210.00 127.84 214.36 127.95 217.93 C 128.06 265.25 127.97 312.57 128.00 359.90 C 119.73 358.88 111.42 357.91 103.37 355.67 C 71.39 347.45 43.24 325.98 26.28 297.71 C 10.93 272.45 5.08 241.72 9.57 212.55 C 10.61 204.43 13.62 196.73 14.65 188.60 C 24.15 171.02 37.49 155.42 53.85 143.87 C 70.90 131.50 91.13 123.86 111.94 121.00 C 112.69 117.70 112.86 114.31 113.22 110.95 C 117.22 80.57 132.68 51.87 155.83 31.80 C 178.17 11.94 207.70 0.75 237.53 0.00 Z" />
</g>
<g id="#db6b5eff">
<path fill="#db6b5e" opacity="1.00" d=" M 248.73 91.71 C 250.73 89.83 253.09 87.85 256.00 87.97 C 259.41 87.82 261.92 90.46 264.14 92.67 C 246.78 109.47 230.02 126.87 212.73 143.74 C 210.59 146.01 207.94 148.53 208.09 151.92 C 208.09 155.34 210.76 157.80 212.98 160.05 C 208.04 159.88 203.07 160.36 198.16 159.75 C 193.31 159.00 190.58 152.95 192.68 148.67 C 193.44 147.18 194.57 145.93 195.70 144.72 C 213.43 127.10 231.09 109.41 248.73 91.71 Z" />
<path fill="#db6b5e" opacity="1.00" d=" M 215.99 160.05 C 221.25 160.00 226.51 159.70 231.76 160.23 C 232.17 165.14 231.98 170.07 231.94 175.00 C 231.94 224.00 231.95 273.00 231.93 322.00 C 232.01 327.27 231.46 332.60 232.36 337.82 C 232.88 340.51 235.20 342.23 237.04 344.03 C 231.82 343.85 226.52 344.51 221.36 343.53 C 217.67 342.57 215.82 338.65 216.01 335.08 C 215.97 292.72 216.02 250.36 215.99 208.00 C 216.01 192.02 216.00 176.03 215.99 160.05 Z" />
<path fill="#db6b5e" opacity="1.00" d=" M 213.40 368.55 C 215.54 367.95 217.79 368.00 219.99 367.96 C 245.03 368.08 270.06 367.92 295.10 368.04 C 299.60 367.68 304.08 371.34 303.89 376.00 C 304.09 380.66 299.60 384.32 295.10 383.96 C 269.72 384.07 244.34 383.94 218.96 384.03 C 215.76 384.04 212.04 383.84 209.93 381.06 C 206.36 377.14 208.31 370.06 213.40 368.55 Z" />
<path fill="#db6b5e" opacity="1.00" d=" M 213.40 400.55 C 215.20 400.03 217.10 400.01 218.96 399.97 C 243.65 400.02 268.34 400.02 293.03 399.97 C 295.77 400.05 298.88 399.97 301.06 401.93 C 304.60 404.68 304.86 410.53 301.59 413.59 C 299.42 415.96 296.00 415.98 293.04 416.03 C 268.00 415.97 242.97 416.02 217.93 416.01 C 214.79 416.08 211.29 415.33 209.50 412.50 C 206.49 408.48 208.58 402.00 213.40 400.55 Z" />
<path fill="#db6b5e" opacity="1.00" d=" M 213.40 432.55 C 215.54 431.95 217.79 432.00 219.99 431.96 C 245.03 432.08 270.07 431.92 295.10 432.04 C 299.60 431.68 304.08 435.34 303.89 440.00 C 304.08 444.66 299.60 448.32 295.10 447.96 C 269.03 448.03 242.96 448.03 216.90 447.96 C 213.04 448.19 209.07 445.69 208.30 441.79 C 207.33 437.98 209.66 433.74 213.40 432.55 Z" />
</g>
<g id="#ff8c78ff">
<path fill="#ff8c78" opacity="1.00" d=" M 212.73 143.74 C 230.02 126.87 246.78 109.47 264.14 92.67 C 278.99 107.88 294.17 122.77 309.16 137.85 C 312.41 141.26 316.24 144.21 318.85 148.18 C 321.66 152.65 318.34 159.49 312.98 159.79 C 307.38 160.36 301.73 159.72 296.12 160.11 C 295.81 176.07 296.09 192.05 296.01 208.01 C 296.00 249.70 295.97 291.39 296.03 333.07 C 296.04 336.66 295.47 341.03 291.91 342.87 C 288.51 344.43 284.63 343.94 280.99 344.06 C 266.34 343.93 251.69 344.01 237.04 344.03 C 235.20 342.23 232.88 340.51 232.36 337.82 C 231.46 332.60 232.01 327.27 231.93 322.00 C 231.95 273.00 231.94 224.00 231.94 175.00 C 231.98 170.07 232.17 165.14 231.76 160.23 C 226.51 159.70 221.25 160.00 215.99 160.05 C 215.24 160.05 213.74 160.05 212.98 160.05 C 210.76 157.80 208.09 155.34 208.09 151.92 C 207.94 148.53 210.59 146.01 212.73 143.74 Z" />
</g>
<g id="#3cbde8ff">
<path fill="#3cbde8" opacity="1.00" d=" M 0.00 238.66 C 1.83 221.28 6.16 203.98 14.65 188.60 C 13.62 196.73 10.61 204.43 9.57 212.55 C 5.08 241.72 10.93 272.45 26.28 297.71 C 43.24 325.98 71.39 347.45 103.37 355.67 C 111.42 357.91 119.73 358.88 128.00 359.90 C 128.02 365.27 128.01 370.64 128.00 376.02 C 96.09 376.31 64.31 363.74 41.05 341.92 C 16.81 319.85 2.03 288.11 0.00 255.45 L 0.00 238.66 Z" />
<path fill="#3cbde8" opacity="1.00" d=" M 485.54 328.55 C 491.88 322.71 496.67 315.50 502.50 309.21 C 487.85 343.28 455.08 368.78 418.44 374.57 C 407.08 376.73 395.48 375.81 384.00 376.00 C 383.98 370.65 383.99 365.31 384.02 359.97 C 392.69 359.98 401.36 360.09 410.03 359.94 C 437.94 359.33 465.51 348.07 485.54 328.55 Z" />
</g>
<g id="#d9dde2ff">
<path fill="#d9dde2" opacity="1.00" d=" M 132.62 208.70 C 138.29 207.23 144.23 208.24 150.01 207.98 C 147.80 209.66 144.88 211.21 144.37 214.22 C 143.55 219.10 144.04 224.08 144.00 229.00 C 144.02 320.36 143.96 411.72 144.03 503.08 C 143.64 507.24 146.83 510.12 150.11 512.00 L 133.47 512.00 C 130.58 510.37 127.69 507.70 128.01 504.07 C 127.98 461.39 128.01 418.70 128.00 376.02 C 128.01 370.64 128.02 365.27 128.00 359.90 C 127.97 312.57 128.06 265.25 127.95 217.93 C 127.84 214.36 128.83 210.00 132.62 208.70 Z" />
<path fill="#d9dde2" opacity="1.00" d=" M 312.06 208.02 C 314.89 208.18 317.35 209.69 319.30 211.67 C 339.59 232.07 359.93 252.41 380.33 272.70 C 382.31 274.64 383.81 277.11 383.97 279.95 C 363.97 280.11 343.97 279.88 323.97 280.09 C 320.71 279.97 316.88 280.13 314.44 277.56 C 311.86 275.12 312.02 271.29 311.91 268.04 C 312.13 248.03 311.89 228.03 312.06 208.02 Z" />
</g>
<g id="#eceef1ff">
<path fill="#eceef1" opacity="1.00" d=" M 150.01 207.98 C 172.01 208.02 194.00 207.99 215.99 208.00 C 216.02 250.36 215.97 292.72 216.01 335.08 C 215.82 338.65 217.67 342.57 221.36 343.53 C 226.52 344.51 231.82 343.85 237.04 344.03 C 251.69 344.01 266.34 343.93 280.99 344.06 C 284.63 343.94 288.51 344.43 291.91 342.87 C 295.47 341.03 296.04 336.66 296.03 333.07 C 295.97 291.39 296.00 249.70 296.01 208.01 C 301.36 208.02 306.71 207.80 312.06 208.02 C 311.89 228.03 312.13 248.03 311.91 268.04 C 312.02 271.29 311.86 275.12 314.44 277.56 C 316.88 280.13 320.71 279.97 323.97 280.09 C 343.97 279.88 363.97 280.11 383.97 279.95 C 384.08 306.62 383.93 333.30 384.02 359.97 C 383.99 365.31 383.98 370.65 384.00 376.00 C 383.98 418.37 384.04 460.74 383.97 503.11 C 384.32 507.51 380.99 511.38 376.68 512.00 L 150.11 512.00 C 146.83 510.12 143.64 507.24 144.03 503.08 C 143.96 411.72 144.02 320.36 144.00 229.00 C 144.04 224.08 143.55 219.10 144.37 214.22 C 144.88 211.21 147.80 209.66 150.01 207.98 M 213.40 368.55 C 208.31 370.06 206.36 377.14 209.93 381.06 C 212.04 383.84 215.76 384.04 218.96 384.03 C 244.34 383.94 269.72 384.07 295.10 383.96 C 299.60 384.32 304.09 380.66 303.89 376.00 C 304.08 371.34 299.60 367.68 295.10 368.04 C 270.06 367.92 245.03 368.08 219.99 367.96 C 217.79 368.00 215.54 367.95 213.40 368.55 M 213.40 400.55 C 208.58 402.00 206.49 408.48 209.50 412.50 C 211.29 415.33 214.79 416.08 217.93 416.01 C 242.97 416.02 268.00 415.97 293.04 416.03 C 296.00 415.98 299.42 415.96 301.59 413.59 C 304.86 410.53 304.60 404.68 301.06 401.93 C 298.88 399.97 295.77 400.05 293.03 399.97 C 268.34 400.02 243.65 400.02 218.96 399.97 C 217.10 400.01 215.20 400.03 213.40 400.55 M 213.40 432.55 C 209.66 433.74 207.33 437.98 208.30 441.79 C 209.07 445.69 213.04 448.19 216.90 447.96 C 242.96 448.03 269.03 448.03 295.10 447.96 C 299.60 448.32 304.08 444.66 303.89 440.00 C 304.08 435.34 299.60 431.68 295.10 432.04 C 270.07 431.92 245.03 432.08 219.99 431.96 C 217.79 432.00 215.54 431.95 213.40 432.55 Z" />
</g>
</svg>
